<svg width="850" height="223" viewBox="0 0 850 223" fill="none" xmlns="http://www.w3.org/2000/svg">
<path d="M185.517 26.5493C180.113 28.959 173.014 30.1709 165.573 30.7383C154.528 35.3479 141.803 32.5022 130.53 30.6959C125.731 29.927 120.003 25.2303 114.974 29.7556C109.255 34.9014 100.715 34.4095 93.7733 34.2153C86.4365 34.0102 81.1566 37.5568 74.2616 38.217C70.3117 38.5953 69.7797 45.6303 65.4226 46.8119C61.7 47.8215 58.3453 46.5578 55.0494 49.5534C48.5692 55.4434 47.4566 61.0009 44.9924 68.7247C41.0079 81.2137 34.7542 69.8535 28.5139 76.0954C18.5096 86.102 40.4582 108.662 28.6776 118.289C26.5263 120.047 20.0375 118.553 17.2885 118.476C12.9429 118.354 15.3129 122.505 11.7882 122.869C4.85546 123.587 -4.5071 133.782 9.35401 134.17C14.2104 134.306 19.419 133.854 24.2005 134.711C28.3763 135.46 30.4368 141.309 35.0539 141.709C39.2663 142.074 40.3956 145.146 39.0534 149.653C38.1796 152.587 30.9594 149.752 28.7876 152.902C18.7041 167.53 51.7902 162.921 51.4071 178.545L51.4052 178.623C51.1649 188.418 50.9612 196.722 63.8949 197.084C77.8482 197.474 91.8496 198.263 105.809 198.256C129.808 198.243 153.975 197.329 178.196 198.007C188.048 198.282 197.756 199.111 207.46 197.057C212.374 196.016 217.422 197.639 222.325 196.841C227.064 196.068 229.278 192.614 234.888 192.771L271.533 193.796L294.765 194.445C301.49 194.633 305.262 198.804 311.419 199.458C311.419 199.458 325.556 196.905 333.535 197.128C363.684 197.971 501.957 205.534 531.893 206.371C574.317 207.558 720.381 217.338 760.366 202.792C776.102 197.067 800.372 159.574 800.372 159.574C800.372 159.574 804.298 127.73 800.212 105.667C797.36 90.2707 780.589 66.2834 771.743 56.4583C760.397 46.4489 752.806 43.8522 733.118 38.452C715.549 37.9607 698.32 42.0262 681.393 41.5529L622.114 39.8952C577.912 38.6591 532.943 39.6753 488.412 38.43L424.822 36.6518C409.861 36.2334 382.65 40.5797 369.939 31.7065C362.661 26.6268 340.866 29.7567 332.483 29.5223C318.061 29.119 304.586 26.4685 290.266 26.068C272.996 25.5851 256.786 27.4055 239.434 26.9203C224.741 26.5094 199.08 20.5014 185.517 26.5493Z" fill="#00620A"/>
<path d="M143.154 85.333H144.244C147.272 85.333 152.842 85.7266 160.955 86.5137L171.036 86.7861H171.309C175.91 86.7861 179.271 86.5742 181.39 86.1504C182.116 88.875 182.48 92.1445 182.48 95.959V96.4131C182.48 98.0479 182.116 98.8652 181.39 98.8652L181.027 99.2285C181.027 99.4707 181.39 99.7432 182.116 100.046H182.298V100.409C181.935 100.954 180.875 101.287 179.119 101.408C177.666 101.408 176.94 100.924 176.94 99.9551L176.849 97.7754L176.94 93.5977C176.94 93.0527 175.154 92.7803 171.581 92.7803H166.132L163.044 92.6895C162.499 92.6895 162.075 97.6543 161.773 107.584C161.409 115.758 161.228 121.298 161.228 124.204V126.929C161.228 127.716 160.955 128.533 160.41 129.381V129.472C160.895 129.472 161.167 130.107 161.228 131.379L160.955 132.741H160.774V132.65V132.105L160.592 139.189C160.592 139.916 163.589 140.552 169.583 141.097C170.734 141.521 171.309 142.096 171.309 142.822C170.824 143.912 170.582 145.274 170.582 146.909C170.401 146.909 170.31 147.212 170.31 147.817L169.946 148.181C163.468 147.817 157.504 147.636 152.055 147.636H149.966C147.181 147.636 145.031 147.757 143.518 147.999C143.397 147.757 143.154 145.759 142.791 142.005H142.882L144.154 142.55H144.244L144.608 142.277V142.187C144.487 141.884 144.184 141.732 143.699 141.732L143.427 141.46V141.278C143.427 141.097 144.759 140.764 147.423 140.279C147.423 140.098 149.542 139.977 153.78 139.916C154.265 139.916 154.598 137.948 154.779 134.013L155.234 128.2C154.689 123.175 154.416 120.057 154.416 118.846L153.417 100.863V98.502L153.599 95.1416L153.417 93.9609L153.78 93.2344V92.7803C153.78 92.2354 151.389 91.9326 146.606 91.8721C143.154 92.0537 141.429 92.2959 141.429 92.5986C140.884 93.9912 140.339 96.0801 139.794 98.8652L139.158 99.4102L138.977 99.3193H138.341C138.099 99.5615 137.826 99.6826 137.524 99.6826L134.981 99.8643C134.981 98.7139 134.981 97.5332 134.981 96.3223C135.041 95.0508 135.071 94.082 135.071 93.416C135.132 92.75 135.162 92.2656 135.162 91.9629L134.708 88.5117C134.708 87.7852 135.162 87.3613 136.07 87.2402L137.16 86.1504H137.614L138.432 87.2402H138.613C139.643 85.9688 141.156 85.333 143.154 85.333ZM163.498 88.7842L163.226 89.0566C163.226 89.3594 164.195 89.5713 166.132 89.6924C167.161 89.5713 167.676 89.4502 167.676 89.3291V89.1475C166.949 88.9053 165.648 88.7842 163.771 88.7842H163.498ZM175.396 91.3271H174.487V91.418C174.609 91.7207 174.851 91.8721 175.214 91.8721H175.759V91.6904L175.396 91.3271ZM177.666 91.3271H177.212V91.6904H177.485L177.666 91.418V91.3271ZM158.049 93.5977V93.6885L158.321 93.9609C158.927 93.9609 159.532 93.5674 160.138 92.7803V92.5986L159.684 92.5078C159.139 92.5078 158.594 92.8711 158.049 93.5977ZM138.795 92.7803L138.341 93.2344V93.9609L138.613 94.3242H138.795L139.249 93.8701V93.2344L138.886 92.7803H138.795ZM155.234 93.5068V93.9609C155.415 94.8691 155.597 95.3232 155.779 95.3232C156.081 95.3232 156.323 94.9902 156.505 94.3242V93.6885C156.505 93.3252 156.293 93.0225 155.869 92.7803C155.445 92.7803 155.234 93.0225 155.234 93.5068ZM179.119 93.2344H178.938L178.665 94.415L179.119 94.5967L179.392 94.3242V93.5977L179.119 93.2344ZM158.957 96.5039H158.866L158.685 97.5938V99.0469H158.866L158.957 97.7754V96.5039ZM178.574 99.0469L178.393 99.2285V99.6826H178.574L178.938 99.3193V99.2285L178.665 99.0469H178.574ZM159.775 104.678H159.593L159.411 107.947V110.127C159.411 111.641 159.563 112.397 159.865 112.397H160.047L160.32 111.217L159.775 104.678ZM155.869 107.402L155.688 107.675L155.779 107.856H155.869V107.402ZM156.868 114.214H156.596C156.233 115.728 156.051 117.362 156.051 119.118V120.208C156.051 123.114 156.323 124.567 156.868 124.567C157.05 124.567 157.171 124.083 157.232 123.114L156.687 118.846L157.141 116.848L156.868 114.214ZM157.595 126.929H157.232V128.473L158.049 129.835V129.381C158.049 127.746 157.898 126.929 157.595 126.929ZM149.058 141.278L148.604 141.732V142.187C148.604 142.308 148.725 142.368 148.967 142.368L150.874 142.187V141.914C150.632 141.49 150.178 141.278 149.512 141.278H149.058ZM146.878 141.642H146.606L146.424 141.914L146.696 142.187H147.06L147.241 141.914L146.878 141.642ZM166.132 142.913C167.04 143.155 168.1 143.276 169.311 143.276L169.492 143.095V142.822L168.584 142.55H166.768C166.344 142.61 166.132 142.731 166.132 142.913ZM164.406 144.094L164.043 144.457C164.225 144.881 164.528 145.093 164.951 145.093H165.496C165.86 145.093 166.102 145.002 166.223 144.82V144.639C166.223 144.396 165.799 144.215 164.951 144.094H164.406ZM155.688 144.275L154.87 144.457V144.82L155.688 144.911H156.959C157.322 144.911 157.534 144.79 157.595 144.548C157.292 144.366 156.838 144.275 156.233 144.275H155.688ZM149.33 144.639L148.876 144.82V145.093L150.329 145.365L151.51 145.093V145.002L151.147 144.639H149.33ZM145.243 146.364V146.546L145.516 146.728H145.697C146.121 146.485 146.333 146.062 146.333 145.456V145.365L146.061 145.093H145.97C145.486 145.396 145.243 145.819 145.243 146.364ZM169.22 145.365L168.857 145.729V146.001L169.22 146.183L169.492 145.819V145.547L169.22 145.365ZM182.778 108.25L188.09 110.047C188.142 110.828 188.455 111.661 189.028 112.547L189.184 113.406C188.715 116.74 188.585 123.667 188.793 134.188C188.793 135.698 189.418 136.688 190.668 137.156L191.215 138.406C191.215 138.719 192.934 139.005 196.371 139.266H196.684C197.778 139.266 199.132 138.094 200.746 135.75C201.996 134.5 202.83 133.51 203.246 132.781H203.637V132.312L203.481 131.922C203.793 131.453 204.028 130.75 204.184 129.812H204.262V129.109L205.668 114.266V112.859L205.512 112.078V112C206.085 111.583 206.371 110.932 206.371 110.047C206.371 109.474 206.554 109.161 206.918 109.109L208.715 110.047H210.434C212.517 110.047 214.001 110.49 214.887 111.375V111.688C214.314 111.688 214.028 111.792 214.028 112L214.809 113.797H215.043C215.147 113.016 215.251 112.625 215.356 112.625C215.564 112.885 215.694 113.328 215.746 113.953L214.887 123.641L215.043 123.797V123.875C214.679 124.969 214.314 128.12 213.949 133.328V135.594C213.949 138.979 214.106 140.672 214.418 140.672H214.731C215.668 140.672 217.179 140.464 219.262 140.047C219.47 140.099 219.939 140.411 220.668 140.984C220.46 145.672 220.147 148.016 219.731 148.016L218.871 147.312L216.528 147.469L207.856 147.312C207.387 147.312 206.918 146.245 206.449 144.109C206.137 143.849 205.981 143.536 205.981 143.172L206.137 142.469H205.903C205.486 142.469 203.949 143.172 201.293 144.578C201.137 144.943 199.314 145.698 195.824 146.844C195.043 147.26 194.001 147.677 192.699 148.094C191.918 147.625 190.668 147.156 188.949 146.688C185.668 143.458 183.663 140.62 182.934 138.172C181.58 136.245 180.903 132.13 180.903 125.828L181.762 116.688V116.453C181.762 116.349 179.991 116.01 176.449 115.438C176.137 114.969 175.981 113.667 175.981 111.531C175.981 110.125 176.215 109.422 176.684 109.422C176.684 108.849 178.715 108.458 182.778 108.25ZM181.449 109.188L181.137 109.344V109.5H181.684V109.344L181.449 109.188ZM183.403 109.812L183.012 109.969V110.047C183.012 110.099 183.403 110.333 184.184 110.75C184.184 111.427 184.236 111.766 184.34 111.766H184.809C186.059 111.766 186.814 111.557 187.074 111.141V110.984C187.074 110.62 186.293 110.333 184.731 110.125C184.731 110.021 184.418 109.917 183.793 109.812H183.403ZM178.09 112H177.074V112.234L177.231 112.312H177.465L178.09 112.234V112ZM178.09 112.781H177.465V112.938C177.517 113.25 177.804 113.406 178.324 113.406L178.403 113.25V113.094L178.09 112.781ZM207.153 110.906H206.996C206.996 111.427 207.413 111.688 208.246 111.688H208.715L208.949 111.531V111.453C208.949 111.193 208.35 111.01 207.153 110.906ZM180.121 113.719C180.121 114.031 180.955 114.474 182.621 115.047H183.403C183.611 115.047 183.715 114.865 183.715 114.5C183.142 113.927 182.439 113.562 181.606 113.406H180.981C180.46 113.406 180.173 113.51 180.121 113.719ZM179.106 113.484L178.715 113.641V113.875L178.793 113.953V114.031C179.262 113.927 179.496 113.797 179.496 113.641V113.484H179.106ZM185.981 114.344V115.828L186.215 115.984C186.528 115.828 186.684 115.516 186.684 115.047V114.188C186.684 113.875 186.606 113.667 186.449 113.562H186.293C186.085 113.615 185.981 113.875 185.981 114.344ZM177.387 114.031L177.074 114.344L177.231 114.5H177.856L178.09 114.344L177.778 114.031H177.387ZM207.856 113.406L207.621 113.641V113.797C207.621 114.005 207.804 114.109 208.168 114.109H208.246C208.611 114.109 208.819 114.005 208.871 113.797V113.641C208.819 113.484 208.559 113.406 208.09 113.406H207.856ZM182.543 117.859V118.484L183.715 118.094V116.453L183.559 116.219C183.298 116.219 182.96 116.766 182.543 117.859ZM208.949 122V122.312H209.028C209.548 122.312 209.809 121.714 209.809 120.516C209.757 119.995 209.679 119.734 209.574 119.734C209.418 119.734 209.21 120.49 208.949 122ZM212.074 124.422H211.84L211.684 124.734C211.788 124.995 211.892 125.125 211.996 125.125H212.074V124.422ZM183.949 126.609L183.715 126.531L183.403 126.844V127L183.715 127.156L183.949 126.922V126.609ZM207.856 129.422L208.246 129.812C208.507 129.708 208.663 129.188 208.715 128.25L208.637 128.094H208.481C208.064 128.406 207.856 128.849 207.856 129.422ZM185.512 129.266V129.812C185.512 130.49 185.85 131.01 186.528 131.375H186.762C186.762 129.448 186.606 128.484 186.293 128.484H185.981C185.668 128.641 185.512 128.901 185.512 129.266ZM207.699 130.281L207.465 130.516V131.219L207.699 131.531C208.012 131.375 208.246 131.141 208.403 130.828V130.516L208.168 130.281H207.699ZM182.856 131.141L182.621 131.375V131.688C182.621 133.719 183.715 136.896 185.903 141.219C186.319 141.479 186.606 141.609 186.762 141.609V141.219L184.496 134.891C183.819 132.495 183.298 131.245 182.934 131.141H182.856ZM209.574 133.328L209.262 133.641V133.719L209.574 133.953L209.809 133.719L209.731 133.328H209.574ZM200.981 137.156L201.059 137.312H201.137C202.387 135.646 203.012 134.682 203.012 134.422V134.266H202.778C202.361 134.786 201.762 135.75 200.981 137.156ZM186.996 134.422V134.5C187.153 134.812 187.361 134.969 187.621 134.969V134.891C187.621 134.578 187.413 134.422 186.996 134.422ZM209.418 134.578H209.262V135.047C209.262 135.88 209.392 136.948 209.653 138.25H209.887C210.095 137.469 210.199 136.714 210.199 135.984V135.438C210.199 134.865 209.939 134.578 209.418 134.578ZM205.199 135.359L204.887 134.969C204.574 135.385 204.418 135.698 204.418 135.906L204.809 136.141H204.887L205.199 135.906V135.359ZM207.856 136.141H207.699V136.688H207.856L208.09 136.453V136.219L207.856 136.141ZM189.262 138.406H189.184V138.641L189.34 138.875H189.418V138.641L189.262 138.406ZM212.778 138.484L211.996 139.656V139.891H212.778L213.09 139.656V139.266C213.09 138.797 212.986 138.536 212.778 138.484ZM205.512 139.812V139.891H205.668L206.215 139.422V139.109C205.746 139.109 205.512 139.344 205.512 139.812ZM207.856 139.656L207.621 139.891V140.828C207.621 144.474 207.804 146.297 208.168 146.297H208.403C208.767 146.245 208.949 146.089 208.949 145.828C208.533 145.099 208.298 143.198 208.246 140.125L207.856 139.656ZM188.715 140.047H188.481V140.359C188.533 140.568 188.715 140.672 189.028 140.672V140.359L188.715 140.047ZM190.668 140.594H190.434V140.672C190.434 141.245 191.345 142.078 193.168 143.172C195.251 142.339 196.293 141.818 196.293 141.609V141.531C194.939 141.531 193.064 141.219 190.668 140.594ZM194.418 143.484V143.641H195.356C197.387 143.172 198.741 142.469 199.418 141.531V141.219H199.028C198.715 141.219 197.179 141.974 194.418 143.484ZM217.465 141.844L215.043 142.156V142.469L215.512 142.547H215.824C216.97 142.495 217.543 142.312 217.543 142V141.844H217.465ZM217.465 143.172H217.153V143.641H217.465L217.699 143.484V143.328C217.699 143.224 217.621 143.172 217.465 143.172ZM211.137 144.422L210.903 144.578V144.812C211.007 145.073 211.319 145.203 211.84 145.203H212.621L212.856 145.047V144.891C212.856 144.63 212.517 144.474 211.84 144.422H211.137ZM192.934 145.203H192.309L189.184 144.891H189.028L188.715 145.203V145.281C188.715 145.75 190.173 146.271 193.09 146.844C193.975 146.844 195.72 146.193 198.324 144.891L198.403 144.812V144.578H197.856C196.293 144.995 194.653 145.203 192.934 145.203ZM251.996 110.594C254.028 110.594 255.746 112.026 257.153 114.891C257.413 114.891 257.778 115.229 258.246 115.906L259.262 121.688C258.897 122.312 257.517 122.625 255.121 122.625H254.34C252.413 122.312 251.449 121.661 251.449 120.672C251.449 119.943 250.85 118.927 249.653 117.625C249.496 117.365 248.376 117.234 246.293 117.234C244.314 117.234 241.918 117.755 239.106 118.797C237.126 120.88 235.824 122.495 235.199 123.641C235.564 132.547 235.694 138.12 235.59 140.359C235.59 140.828 235.903 141.062 236.528 141.062H238.403C239.236 141.115 239.653 141.271 239.653 141.531V141.609L239.965 142.625L239.809 147L239.34 147.625L235.668 148.016H235.356L233.793 148.484C227.804 148.276 224.809 148.042 224.809 147.781C223.767 147.781 223.246 147.312 223.246 146.375C223.142 145.438 223.09 144.474 223.09 143.484C223.09 142.495 224.106 141.844 226.137 141.531C226.137 141.115 226.84 140.906 228.246 140.906L228.481 140.828V140.672L228.012 119.266C228.012 117.964 227.673 117.312 226.996 117.312H226.528C225.903 117.312 224.861 117.599 223.403 118.172L223.246 118.016V117.859C223.246 117.755 223.455 117.625 223.871 117.469V117.312C223.35 117.312 223.09 115.854 223.09 112.938C222.986 112.938 222.908 112.469 222.856 111.531C224.939 109.917 227.126 109.109 229.418 109.109H231.371C232.153 109.109 233.481 109.37 235.356 109.891V110.125C234.887 110.854 234.653 111.375 234.653 111.688V112.234C238.871 110.359 244.653 109.812 251.996 110.594ZM231.528 122.391V122.781C231.788 123.302 231.918 123.849 231.918 124.422C231.866 124.63 231.788 125.698 231.684 127.625L231.84 130.75H231.918C232.074 130.75 232.283 128.328 232.543 123.484C232.647 123.484 232.699 122.964 232.699 121.922C232.647 121.453 232.517 121.219 232.309 121.219H232.153C231.736 121.479 231.528 121.87 231.528 122.391ZM226.84 145.984L225.824 146.062V146.219C225.824 146.479 226.58 146.609 228.09 146.609H230.434L230.981 146.531C230.981 146.271 229.6 146.089 226.84 145.984ZM240.356 113.953V114.109C240.824 114.109 241.449 113.354 242.231 111.844V111.453H242.153C240.798 111.87 240.199 112.703 240.356 113.953ZM250.434 116.453H250.824C251.085 116.401 251.58 115.776 252.309 114.578V114.5C252.309 114.396 252.205 114.344 251.996 114.344C251.111 114.76 250.668 115.307 250.668 115.984C250.616 115.984 250.538 116.141 250.434 116.453ZM232.465 118.25H232.153L231.762 119.891C231.762 120.151 231.918 120.411 232.231 120.672H232.309C232.465 120.672 232.595 120.307 232.699 119.578L232.465 118.25ZM243.324 112.234L243.715 113.797H244.34V112.156L244.106 111.922H243.871C243.507 111.974 243.324 112.078 243.324 112.234ZM226.293 144.734L226.137 144.891L226.215 145.047H230.512V144.812L227.856 144.734H226.293ZM224.887 112.156C225.304 112.573 225.746 112.781 226.215 112.781L226.293 112.625V112.078L225.981 111.688C225.251 111.792 224.887 111.948 224.887 112.156ZM232.778 145.281L233.012 145.516H234.184L234.496 145.203C234.496 145.099 234.366 144.995 234.106 144.891C233.22 144.995 232.778 145.125 232.778 145.281ZM255.278 114.266H255.043V114.422C255.46 114.839 255.824 115.047 256.137 115.047H256.371V114.891C255.955 114.474 255.59 114.266 255.278 114.266ZM228.481 110.594H228.246V110.906L228.715 111.453H229.418V111.297L228.481 110.594ZM226.137 115.203V115.359H226.371C226.944 115.359 227.257 115.255 227.309 115.047L227.153 114.812H226.996C226.528 114.812 226.241 114.943 226.137 115.203ZM246.137 111.531L245.199 111.609V111.688L245.356 111.922H246.137C246.501 111.922 246.71 111.818 246.762 111.609L246.606 111.531H246.137ZM233.793 136.688L233.481 136.922V137.547H233.793L234.106 137.312V136.844L233.949 136.688H233.793ZM224.418 145.203L224.106 144.891L223.949 145.203V145.516L224.106 145.75H224.418V145.203ZM235.356 115.672L235.043 115.75V115.984L235.356 116.219H235.59L235.824 115.984V115.75L235.356 115.672ZM247.699 111.453V111.609H248.246L248.559 111.375L248.324 111.141C247.908 111.245 247.699 111.349 247.699 111.453ZM252.856 111.453L252.699 111.609V111.688L252.856 111.922H253.168L253.324 111.688V111.609L253.168 111.453H252.856ZM233.871 110.672L233.481 110.828V111.141H233.871L234.106 110.828L233.871 110.672ZM233.637 112.078L233.324 112.312V112.469L233.481 112.625L233.871 112.312V112.078H233.637ZM252.621 118.562V118.719H252.778L253.09 118.484V118.25H253.012C252.751 118.406 252.621 118.51 252.621 118.562ZM249.965 111.688L249.653 111.922V112H250.043L250.199 111.844V111.688H249.965ZM233.793 138.406H233.637V138.719H233.793V138.406ZM278.793 84.1875C279.939 84.1875 280.876 84.5 281.606 85.125C280.981 86.7917 280.564 89.4219 280.356 93.0156L279.653 100.203C279.653 100.568 280.694 100.75 282.778 100.75C288.923 100.75 291.996 101.036 291.996 101.609C292.257 101.609 292.569 101.766 292.934 102.078C292.413 102.755 292.153 103.25 292.153 103.562V103.797L292.387 105.359L291.371 108.797C291.371 109.161 291.762 109.682 292.543 110.359V110.516C291.293 110.932 290.278 111.141 289.496 111.141C288.663 111.089 288.246 110.958 288.246 110.75V110.594L288.949 110.516H289.496L289.809 110.203V110.047L289.496 109.969L284.262 110.047L279.965 109.969C279.705 109.969 279.418 111.427 279.106 114.344H279.028L277.934 113.094L277.699 113.953V114.422C277.751 115.88 277.934 116.661 278.246 116.766C278.455 116.766 278.637 116.297 278.793 115.359V114.812H279.028L279.106 115.047L278.559 122.547C279.184 133.328 279.731 138.719 280.199 138.719C280.46 140.385 281.111 141.219 282.153 141.219C282.725 141.583 283.429 141.766 284.262 141.766H285.668L290.356 141.531C290.46 141.531 290.642 142.911 290.903 145.672C291.007 146.505 290.824 147.104 290.356 147.469C289.939 147.885 289.21 148.094 288.168 148.094L282.153 148.25C278.871 148.25 276.111 147.339 273.871 145.516C272.413 144.995 271.684 143.432 271.684 140.828C271.58 139.422 271.397 135.255 271.137 128.328L272.074 117.703L272.309 113.094V112.469C271.944 110.281 271.319 109.188 270.434 109.188H268.09H265.356C264.574 109.188 263.793 109.37 263.012 109.734C262.491 109.682 261.84 108.979 261.059 107.625L262.621 100.672C262.621 100.464 265.772 100.333 272.074 100.281C272.074 99.6042 272.439 98.7448 273.168 97.7031C273.376 89.5781 273.663 85.5156 274.028 85.5156V85.2812C274.028 85.1771 273.897 85.125 273.637 85.125V84.8906C273.637 84.7344 275.356 84.5 278.793 84.1875ZM275.824 86.2969H275.746V86.7656H275.981V86.4531L275.824 86.2969ZM279.184 86.4531L278.871 86.7656V86.9219L279.106 88.7188H279.262C279.887 88.0938 280.199 87.5469 280.199 87.0781V86.7656L279.965 86.4531H279.184ZM276.371 89.3438L276.137 89.1094C276.033 89.6302 275.981 90.3073 275.981 91.1406V91.4531H276.137L276.371 90.125V89.3438ZM276.606 92.625H276.449L276.137 100.359V100.438L276.371 100.672H276.528C276.892 100.672 277.074 100.021 277.074 98.7188V96.9219L276.918 93.0938C276.814 92.7812 276.71 92.625 276.606 92.625ZM263.09 101.609C263.09 101.974 263.324 102.156 263.793 102.156H264.965C267.1 102.156 269.08 102.052 270.903 101.844V101.688C270.903 101.427 269.626 101.297 267.074 101.297H263.793C263.324 101.297 263.09 101.401 263.09 101.609ZM287.465 101.297L286.449 101.688H285.512H284.184V101.922C285.33 102.234 286.319 102.391 287.153 102.391H288.949C289.054 102.391 289.106 102.312 289.106 102.156C289.001 101.583 288.715 101.297 288.246 101.297H287.465ZM289.653 102.078L289.418 102.234V102.391L289.653 102.469C290.173 102.469 290.46 102.365 290.512 102.156V102.078H289.653ZM264.34 103.094L264.184 103.25V103.719C264.184 104.24 265.929 104.5 269.418 104.5C271.189 104.5 272.074 104.37 272.074 104.109C272.074 103.484 269.783 103.146 265.199 103.094H264.34ZM280.981 103.797L280.746 104.031V104.109C280.746 104.37 281.684 104.526 283.559 104.578L284.887 104.5L286.684 104.812H286.996C287.361 104.812 287.543 104.656 287.543 104.344H287.465L281.528 103.797H280.981ZM289.418 105.516L289.106 105.828V105.906L289.418 106.141H289.809C290.278 106.141 290.564 105.984 290.668 105.672L290.434 105.516H289.418ZM265.043 105.828L264.731 106.062C264.731 106.271 264.861 106.375 265.121 106.375L267.074 106.453L269.184 106.375L269.262 106.297V106.141C268.637 105.932 267.465 105.828 265.746 105.828H265.043ZM271.137 107.312L264.731 107.078V107.234C264.731 107.599 266.71 107.781 270.668 107.781L271.293 107.625V107.547L271.137 107.312ZM282.309 107.547H281.918V107.781C281.97 107.885 282.882 108.146 284.653 108.562H284.809V108.406C283.975 107.833 283.142 107.547 282.309 107.547ZM286.293 108.328C287.699 108.797 288.949 109.031 290.043 109.031L290.356 108.719V108.25L290.121 108.016H288.403C286.996 108.016 286.293 108.12 286.293 108.328ZM275.434 111.141V111.766L275.668 112C275.876 111.948 275.981 111.766 275.981 111.453V111.141L275.824 110.594H275.746C275.538 110.646 275.434 110.828 275.434 111.141ZM278.324 112.547L277.934 112.234V112.469L278.246 112.781H278.324V112.547ZM275.824 112.703H275.668L275.59 113.094V113.484L275.668 113.953H275.981V113.25V112.859L275.824 112.703ZM275.981 118.094H275.746V118.719L275.981 119.031H276.137V118.719L275.981 118.094ZM272.231 128.016L272.465 130.203L272.387 132.938L272.465 133.719H272.699C273.012 133.719 273.168 132.495 273.168 130.047V128.25C273.168 125.854 273.064 124.656 272.856 124.656C272.491 124.656 272.283 125.776 272.231 128.016ZM277.309 134.188H277.153L277.074 134.734V135.359C277.074 135.724 277.179 135.932 277.387 135.984H277.543C277.751 135.932 277.856 135.75 277.856 135.438C277.804 134.604 277.621 134.188 277.309 134.188ZM277.934 137.547L277.621 138.406C277.621 139.604 277.882 140.359 278.403 140.672L278.559 140.359V139.656C278.507 138.354 278.298 137.651 277.934 137.547ZM274.887 138.094H274.653V139.266L274.809 139.734H274.887L275.043 139.578V138.25L274.887 138.094ZM277.153 143.016V143.094V143.562C277.205 143.771 277.387 143.979 277.699 144.188H278.246V144.031C278.246 143.458 277.882 143.12 277.153 143.016ZM285.824 144.578H286.137C288.064 144.266 289.028 143.927 289.028 143.562L288.871 143.406C286.84 143.927 285.824 144.318 285.824 144.578ZM275.199 143.484H275.043V143.797C275.199 145.099 275.772 145.75 276.762 145.75H277.543L277.699 145.516V145.438C277.699 145.333 277.231 145.151 276.293 144.891L275.199 143.484ZM299.653 88.6406L300.824 88.3281L304.106 89.1875L309.184 88.9531C310.486 88.9531 311.137 89.3438 311.137 90.125C310.824 92.1042 310.668 94.7344 310.668 98.0156V110.281L310.59 122.078L310.668 125.203L310.278 140.047C312.048 140.516 314.731 140.854 318.324 141.062L318.403 141.141V142.234C318.403 142.495 318.689 142.911 319.262 143.484C318.689 144.734 318.038 146.583 317.309 149.031L316.606 149.578H316.371C316.059 149.109 315.408 148.875 314.418 148.875L301.606 147.156C297.751 147.156 295.824 146.922 295.824 146.453C296.449 145.203 296.918 143.172 297.231 140.359H297.309V140.281L298.09 140.359H298.871C299.132 140.203 299.887 139.995 301.137 139.734C301.658 139.995 302.048 140.125 302.309 140.125H303.246C303.767 140.125 304.028 139.604 304.028 138.562C304.132 137.312 304.392 131.609 304.809 121.453C304.444 118.328 304.132 109.734 303.871 95.6719C303.663 95.3073 303.403 95.125 303.09 95.125L299.574 95.3594C298.949 95.3073 298.637 95.099 298.637 94.7344C298.845 90.6719 299.184 88.6406 299.653 88.6406ZM300.434 90.125L299.965 90.2812V90.4375C299.965 90.9062 300.225 91.1406 300.746 91.1406H300.981C301.554 91.1406 302.126 90.8542 302.699 90.2812V90.125H300.434ZM304.418 90.125L304.262 90.3594L304.887 90.5156H305.668L305.981 90.2812V90.125H304.418ZM306.918 93.1719V93.25L307.153 93.4844H307.465C307.934 93.1719 308.507 92.8594 309.184 92.5469C309.444 92.1302 309.574 91.8177 309.574 91.6094L309.418 91.4531H309.184C308.715 91.4531 308.246 91.7396 307.778 92.3125C307.205 92.4688 306.918 92.7552 306.918 93.1719ZM300.043 91.9219L299.653 92.3125V92.8594L299.965 93.1719H301.528H302.074V92.8594L300.668 92.2344L300.199 91.9219H300.043ZM306.137 98.25L305.981 98.4844V98.7969L306.137 99.0312H306.293L306.371 98.7969V98.4844L306.293 98.25H306.137ZM305.981 102.625L305.746 102.859V103.016H306.137V102.625H305.981ZM309.418 108.016H309.184V108.094L309.496 108.484H309.574V108.25L309.418 108.016ZM309.574 109.422L309.262 109.188L309.184 110.75V111.688H309.262C309.47 111.688 309.574 111.323 309.574 110.594V109.422ZM305.512 111.219V111.531L305.668 111.688L305.824 111.531V111.141L305.746 110.984C305.746 110.932 305.955 110.776 306.371 110.516V110.281H306.059C305.694 110.49 305.512 110.802 305.512 111.219ZM309.496 112.234H309.184V112.859H309.262L309.496 112.703V112.234ZM306.606 121.141V121.375H306.762C307.022 121.375 307.153 120.307 307.153 118.172C307.048 118.172 306.866 119.161 306.606 121.141ZM308.403 124.812L308.246 124.969L308.09 129.891V136.453L308.246 139.5L308.324 139.578H308.871C309.08 139.578 309.184 139.344 309.184 138.875C309.132 129.5 308.871 124.812 308.403 124.812ZM305.199 136.453V136.766C305.199 137.13 305.304 137.312 305.512 137.312L305.824 136.844V136.297C305.72 135.672 305.616 135.359 305.512 135.359C305.304 135.359 305.199 135.724 305.199 136.453ZM300.512 141.531L300.356 141.766C300.356 142.182 300.538 142.391 300.903 142.391H300.981V141.766L300.746 141.531H300.512ZM315.903 141.531L315.434 141.609V141.766C315.486 142.078 315.929 142.234 316.762 142.234L317.153 141.922V141.609L316.684 141.531H315.903ZM298.246 141.766L298.09 142V142.234L298.403 142.391L298.559 142.078L298.481 141.766H298.246ZM302.074 142.625V142.703L302.465 142.781H302.934L303.246 142.625V142.391H302.699H302.621C302.257 142.391 302.074 142.469 302.074 142.625ZM316.215 143.875L311.762 143.719V143.797C311.762 144.109 312.647 144.292 314.418 144.344H316.449L316.996 144.188V143.953L316.215 143.875ZM301.528 143.953L301.293 144.344L301.449 144.578H302.621C303.455 144.578 303.871 144.5 303.871 144.344V144.188C303.298 144.031 302.569 143.953 301.684 143.953H301.528ZM313.715 145.906L314.028 145.984H315.59C316.059 145.984 316.319 145.906 316.371 145.75V145.516L315.903 145.438H314.731C314.054 145.49 313.715 145.646 313.715 145.906ZM297.309 145.516L297.074 145.906L297.309 145.984H297.699L297.934 145.906L297.621 145.516H297.309ZM315.981 147.391H315.512V147.703L315.981 147.859H316.215L316.684 147.703V147.391H316.215H315.981ZM340.199 107.781C342.387 107.781 345.043 108.719 348.168 110.594C350.824 112.573 352.153 113.927 352.153 114.656C354.236 119.031 355.278 121.661 355.278 122.547L355.356 123.172C354.574 124.995 354.184 126.245 354.184 126.922L353.715 127H347.074C346.449 127 345.694 127.078 344.809 127.234C337.309 126.609 332.048 126.297 329.028 126.297H327.387C326.762 127.234 326.449 127.911 326.449 128.328C326.814 128.901 326.996 129.812 326.996 131.062C326.996 133.042 327.309 134.214 327.934 134.578L328.012 134.969V135.047L327.543 134.812V135.047L328.246 135.828C328.246 136.505 328.715 137.365 329.653 138.406C331.371 141.427 333.246 143.302 335.278 144.031C336.996 144.604 338.949 144.891 341.137 144.891C341.501 144.891 342.257 144.552 343.403 143.875C344.34 143.667 346.319 141.974 349.34 138.797V138.562C349.34 138.458 348.975 138.354 348.246 138.25L348.09 137.859C349.288 135.568 350.72 134.057 352.387 133.328C352.856 133.797 353.819 134.526 355.278 135.516C356.423 137.286 357.96 139.37 359.887 141.766V142.078C358.22 144.266 357.022 145.359 356.293 145.359H355.981C355.981 144.214 355.278 143.562 353.871 143.406C353.611 143.406 352.465 144.266 350.434 145.984C349.236 146.922 347.179 147.807 344.262 148.641C340.876 149.318 338.481 149.656 337.074 149.656L332.621 148.094C330.121 148.094 327.83 146.74 325.746 144.031C324.861 143.094 324.132 141.974 323.559 140.672C323.559 140.255 322.986 138.094 321.84 134.188C321.475 132.677 321.293 131.219 321.293 129.812V129.734C321.293 122.807 323.376 116.74 327.543 111.531C328.064 110.229 329.262 109.266 331.137 108.641C332.387 108.276 333.897 107.99 335.668 107.781C336.137 107.573 337.647 107.573 340.199 107.781ZM333.012 109.422V109.5H333.168C334.001 109.5 335.564 109.214 337.856 108.641C338.324 108.589 338.559 108.458 338.559 108.25L338.324 108.016H338.246C336.736 108.016 335.043 108.432 333.168 109.266L333.012 109.422ZM329.887 110.75V110.828L330.121 110.984H330.199C331.241 110.724 331.762 110.464 331.762 110.203V109.734L331.449 109.422H331.293C330.356 109.734 329.887 110.177 329.887 110.75ZM341.918 109.969H339.574V110.125C339.574 110.333 340.642 110.49 342.778 110.594H342.856V110.281C342.856 110.177 342.543 110.073 341.918 109.969ZM336.371 111.141V111.219C336.371 111.427 337.439 111.688 339.574 112L339.731 111.922V111.609C339.314 111.036 338.611 110.75 337.621 110.75H337.387C336.71 110.802 336.371 110.932 336.371 111.141ZM341.137 111.609V111.688C344.106 113.406 345.694 114.266 345.903 114.266H345.981L346.762 113.953L347.231 114.109L347.309 113.953V113.875C347.1 113.719 346.658 113.562 345.981 113.406L344.418 112.703C344.001 111.818 343.168 111.375 341.918 111.375H341.684C341.319 111.427 341.137 111.505 341.137 111.609ZM331.84 113.875C332.361 113.458 333.403 113.016 334.965 112.547V112.391L334.887 112.234H334.106C332.595 112.651 331.84 113.198 331.84 113.875ZM327.699 119.031V119.266C327.699 119.839 332.439 120.49 341.918 121.219L342.699 121.453L343.715 121.375C345.798 122.052 347.205 122.391 347.934 122.391C347.934 122.547 348.09 122.677 348.403 122.781C348.715 122.312 348.871 121.87 348.871 121.453V119.969C348.871 119.292 347.569 117.781 344.965 115.438C343.767 114.24 342.413 113.562 340.903 113.406L338.246 112.938C333.923 113.823 331.085 114.891 329.731 116.141C329.158 117.234 328.481 118.198 327.699 119.031ZM328.559 114.344V114.5H328.715C329.392 114.344 329.731 114.161 329.731 113.953V113.875H329.34C329.08 113.875 328.819 114.031 328.559 114.344ZM347.231 115.438C347.335 115.854 347.569 116.062 347.934 116.062H348.09L348.246 115.828V115.359L347.934 114.969C347.465 114.969 347.231 115.125 347.231 115.438ZM327.074 115.828L326.918 116.062V116.141H327.074L327.387 115.906V115.828H327.074ZM349.184 116.453H348.871C349.444 118.172 349.861 119.109 350.121 119.266H350.434L350.668 119.109C350.251 117.443 349.809 116.609 349.34 116.609L349.184 116.453ZM327.778 117.859C328.09 117.807 328.246 117.599 328.246 117.234V117.156C327.934 117.26 327.778 117.495 327.778 117.859ZM351.84 119.969L351.606 120.125V120.672L351.84 120.984C352.048 120.932 352.153 120.75 352.153 120.438V120.125L352.074 119.969H351.84ZM326.918 121.062V121.375L327.074 121.531H327.231C327.595 121.375 327.908 121.089 328.168 120.672V120.438H327.778C327.465 120.438 327.179 120.646 326.918 121.062ZM323.715 120.594C323.298 121.01 322.934 122.052 322.621 123.719H322.778C323.09 123.719 323.559 122.807 324.184 120.984C324.08 120.724 323.923 120.594 323.715 120.594ZM331.684 121.531V121.766C332.673 122.443 334.47 122.781 337.074 122.781H337.778L338.793 122.703V122.391C336.658 121.922 334.288 121.635 331.684 121.531ZM345.981 123.562H345.746V123.797H345.981V123.562ZM330.903 124.188V124.344C331.944 124.604 334.705 124.865 339.184 125.125V125.203V125.281L337.543 125.516C337.543 125.672 338.22 125.75 339.574 125.75C341.762 125.75 342.856 125.646 342.856 125.438C342.856 124.917 338.871 124.5 330.903 124.188ZM323.012 124.734H322.621V125.203C322.621 125.516 322.699 125.672 322.856 125.672C323.116 125.672 323.272 125.411 323.324 124.891L323.012 124.734ZM329.34 124.891L328.949 124.969V125.438H329.34V125.125V124.969V124.891ZM326.84 125.516V125.594H326.918L328.246 125.438V125.281L328.012 124.969H327.778C327.309 124.969 326.996 125.151 326.84 125.516ZM345.824 125.672C345.824 125.88 346.293 125.984 347.231 125.984L347.934 125.906V125.75C347.934 125.542 347.439 125.438 346.449 125.438C346.033 125.542 345.824 125.62 345.824 125.672ZM322.621 127.703V127.938V128.016C322.569 128.172 322.543 128.536 322.543 129.109V129.422C322.543 130.359 322.804 131.193 323.324 131.922H323.403C323.403 129.422 323.142 128.016 322.621 127.703ZM324.028 134.5H323.793V134.656L324.028 134.812H324.184V134.656L324.028 134.5ZM324.574 135.828L324.496 135.906V136.062C324.705 136.896 325.017 137.312 325.434 137.312V137.234V137.078C325.434 136.661 325.147 136.245 324.574 135.828ZM350.043 136.531L350.199 136.766H350.59C350.903 136.766 351.085 136.661 351.137 136.453L350.824 136.141H350.746C350.382 136.141 350.147 136.271 350.043 136.531ZM348.246 141.062L348.403 141.141H348.481C349.054 141.141 349.418 140.802 349.574 140.125V139.969C349.001 139.969 348.559 140.333 348.246 141.062ZM353.715 140.906L353.793 140.984H354.028C354.34 140.776 354.496 140.49 354.496 140.125H354.262C353.897 140.333 353.715 140.594 353.715 140.906ZM356.449 140.125H356.371V140.281C356.528 140.906 356.762 141.219 357.074 141.219H357.153L357.309 141.062V140.984C357.205 140.411 356.918 140.125 356.449 140.125ZM351.918 141.766L352.153 141.922C352.934 141.661 353.324 141.323 353.324 140.906V140.75H353.246C352.517 140.75 352.074 141.089 351.918 141.766ZM345.824 143.484H345.981C346.397 143.328 346.632 143.068 346.684 142.703L346.606 142.625C346.085 142.938 345.824 143.224 345.824 143.484ZM350.434 143.875H350.746C351.267 143.406 351.528 143.068 351.528 142.859H351.449C350.772 143.068 350.434 143.406 350.434 143.875ZM328.246 144.578H328.012V144.891C328.116 145.151 328.559 145.438 329.34 145.75L329.653 145.984C329.08 145.099 328.611 144.63 328.246 144.578ZM333.715 144.891H333.637V144.969C333.637 145.177 334.184 145.411 335.278 145.672L335.356 145.594V145.438C334.679 145.073 334.132 144.891 333.715 144.891ZM338.324 145.75H338.09V145.984H338.324V145.75ZM346.449 146.922C346.97 146.922 347.387 146.531 347.699 145.75H347.465C346.788 146.115 346.449 146.505 346.449 146.922ZM340.981 147.703L339.34 147.547H339.028C338.559 147.547 338.298 147.651 338.246 147.859V148.016L338.559 148.25H339.965C341.58 148.25 343.481 147.964 345.668 147.391C345.564 147.078 345.251 146.922 344.731 146.922H344.34C343.09 146.922 341.97 147.182 340.981 147.703ZM406.215 93.1719L411.137 92.7031C414.887 93.3802 417.179 93.9531 418.012 94.4219C421.762 96.7656 424.001 98.9271 424.731 100.906L427.465 105.047C428.142 107.964 428.819 112.052 429.496 117.312C429.08 123.875 428.455 127.573 427.621 128.406C427.048 130.594 426.215 132.938 425.121 135.438C422.621 140.594 420.876 143.667 419.887 144.656C417.804 146.479 415.955 147.391 414.34 147.391C413.611 147.547 413.246 147.781 413.246 148.094L409.809 149.422L409.34 149.344C407.1 149.656 405.356 149.812 404.106 149.812H403.09C402.569 149.812 400.59 149.161 397.153 147.859C396.267 147.547 395.147 146.635 393.793 145.125C392.699 144.344 392.153 143.589 392.153 142.859C390.694 140.828 389.288 137.495 387.934 132.859C387.361 131.297 387.074 130.385 387.074 130.125L386.996 128.875C386.996 120.333 388.246 114.057 390.746 110.047C391.58 108.901 392.309 106.896 392.934 104.031L395.746 100.438C395.746 99.0833 397.804 97.1302 401.918 94.5781C401.918 94.3177 403.35 93.849 406.215 93.1719ZM416.762 94.6562H416.449V95.125C418.012 96.0625 418.949 96.5312 419.262 96.5312V96.375C418.116 95.2292 417.283 94.6562 416.762 94.6562ZM413.793 95.3594L413.559 95.5938V95.6719C415.33 96.9219 417.387 97.8594 419.731 98.4844V98.3281C419.366 97.8594 418.689 97.4427 417.699 97.0781C417.699 96.8177 416.918 96.4271 415.356 95.9062C415.043 95.5417 414.626 95.3594 414.106 95.3594H413.793ZM404.184 97.5469V97.7031C404.392 97.7031 405.694 97.2604 408.09 96.375L409.028 96.0625V95.6719C407.725 95.6719 406.111 96.2969 404.184 97.5469ZM392.856 122.391V128.953C392.856 133.484 394.028 136.401 396.371 137.703C398.715 140.047 400.199 141.219 400.824 141.219C402.387 141.219 403.663 141.714 404.653 142.703L405.356 142.859L406.215 142.703L406.918 143.406H406.996C407.309 143.406 407.699 143.12 408.168 142.547C410.564 142.182 412.205 141.635 413.09 140.906C416.736 137.26 418.559 135.229 418.559 134.812C420.746 129.604 421.84 126.323 421.84 124.969C423.09 120.177 424.001 117.781 424.574 117.781H424.731V117.312C424.731 116.688 424.392 115.698 423.715 114.344C423.35 110.177 422.856 107.625 422.231 106.688C421.137 103.719 418.324 101.089 413.793 98.7969C412.231 98.0677 411.293 97.7031 410.981 97.7031H410.434C408.09 98.7448 406.814 99.2656 406.606 99.2656C406.449 99.2656 406.371 99.474 406.371 99.8906C403.455 101.87 401.71 103.172 401.137 103.797L397.309 108.719C396.371 109.917 395.564 111.401 394.887 113.172C393.533 116.297 392.856 119.37 392.856 122.391ZM395.668 104.422V104.5H395.824C399.574 101.219 401.449 99.3958 401.449 99.0312H401.371C400.225 99.0312 398.975 100.021 397.621 102C397.361 102 396.944 102.286 396.371 102.859C395.903 102.859 395.668 103.38 395.668 104.422ZM420.668 99.2656L420.356 99.5781H420.981L420.668 99.2656ZM402.231 100.828V100.906H402.465C403.923 100.542 404.653 100.099 404.653 99.5781L404.496 99.4219H404.262C402.908 99.7344 402.231 100.203 402.231 100.828ZM418.949 100.281C418.949 100.906 419.679 101.531 421.137 102.156H421.449C421.606 102.156 421.684 102.026 421.684 101.766C421.684 101.349 420.772 100.854 418.949 100.281ZM423.793 102.547L423.559 102.859V103.172C423.559 103.589 424.34 105.203 425.903 108.016L425.121 104.734C425.121 103.276 424.731 102.547 423.949 102.547H423.793ZM394.418 104.812L394.262 105.047V105.203H394.653V104.812H394.418ZM394.106 105.75H393.871V105.984L394.106 105.828V105.75ZM395.824 107.391L395.199 108.016V108.328H395.512C395.824 108.328 395.981 108.042 395.981 107.469V107.391H395.824ZM426.606 110.125L426.137 109.734L426.059 109.891V109.969L426.293 110.828H426.606V110.125ZM393.246 112.234V112.703L393.559 112.938C393.559 112.677 393.897 111.948 394.574 110.75L394.653 110.125H394.418C393.897 110.594 393.507 111.297 393.246 112.234ZM424.731 119.5H424.34V119.812H424.496L424.731 119.578V119.5ZM426.293 120.281H426.137C425.929 121.062 425.824 121.948 425.824 122.938V123.016H425.903C426.215 122.964 426.371 122.703 426.371 122.234V120.75L426.293 120.281ZM427.543 125.125V125.438H427.856C428.168 124.344 428.324 123.51 428.324 122.938V122.703H428.09C427.778 122.703 427.595 123.51 427.543 125.125ZM423.168 125.125V125.594H423.559L423.793 124.891L423.637 124.109H423.559C423.298 124.109 423.168 124.448 423.168 125.125ZM421.215 132.859H421.371C421.736 132.859 422.074 132.052 422.387 130.438C422.908 129.552 423.168 128.38 423.168 126.922V126.688L423.09 126.453C422.621 126.453 422.074 128.276 421.449 131.922L421.371 132.078L421.215 132.859ZM390.434 128.953L390.199 129.109V129.188L390.434 129.422H390.512L390.746 129.188V129.109L390.512 128.953H390.434ZM388.168 130.125L387.934 130.438V131.062L388.09 131.219H388.246L388.403 130.75V130.359L388.168 130.125ZM419.574 134.734L419.731 135.359C418.22 137.339 417.465 138.432 417.465 138.641H418.012L418.09 138.484H418.168L418.246 138.641V138.719L414.653 141.688L414.574 141.922H414.653L414.731 142.078H414.887C415.929 141.714 417.153 140.828 418.559 139.422C419.861 137.755 420.616 136.271 420.824 134.969V134.734V134.188C420.824 133.823 420.694 133.589 420.434 133.484H420.278C420.017 133.484 419.783 133.901 419.574 134.734ZM390.981 135.281H390.903V136.062C390.903 136.688 391.241 137.234 391.918 137.703H392.153V137.547C392.153 136.818 391.762 136.062 390.981 135.281ZM417.699 144.656V144.969H417.778C419.809 143.615 420.824 142.599 420.824 141.922H420.512C419.314 142.859 418.376 143.771 417.699 144.656ZM408.715 143.016V143.172H409.574L409.809 142.859V142.703H409.574C409.054 142.703 408.767 142.807 408.715 143.016ZM401.137 142.938C401.137 143.302 401.501 143.615 402.231 143.875V143.797C402.231 143.38 401.866 143.094 401.137 142.938ZM395.981 144.109H395.824V144.422L396.059 144.578H396.293V144.422L395.981 144.109ZM409.653 146.297V146.609H410.121C411.788 146.193 412.621 145.646 412.621 144.969H412.543C412.126 144.969 411.163 145.411 409.653 146.297ZM406.606 145.203L405.434 145.359V145.75H406.606H408.324V145.594C408.324 145.385 407.986 145.255 407.309 145.203H406.606ZM403.715 145.281L403.481 145.438L404.262 145.75V145.594C404.21 145.385 404.028 145.281 403.715 145.281ZM414.731 146.062L414.574 146.297V146.609H414.887L415.199 146.297L414.887 146.062H414.731ZM396.528 146.766V146.922C396.528 147.182 397.413 147.573 399.184 148.094C401.371 148.771 402.856 149.109 403.637 149.109C404.887 149.109 406.788 148.823 409.34 148.25V148.094H407.856L402.543 148.328L399.184 147.156C398.142 146.896 397.257 146.766 396.528 146.766ZM460.59 110.594C462.621 110.594 464.34 112.026 465.746 114.891C466.007 114.891 466.371 115.229 466.84 115.906L467.856 121.688C467.491 122.312 466.111 122.625 463.715 122.625H462.934C461.007 122.312 460.043 121.661 460.043 120.672C460.043 119.943 459.444 118.927 458.246 117.625C458.09 117.365 456.97 117.234 454.887 117.234C452.908 117.234 450.512 117.755 447.699 118.797C445.72 120.88 444.418 122.495 443.793 123.641C444.158 132.547 444.288 138.12 444.184 140.359C444.184 140.828 444.496 141.062 445.121 141.062H446.996C447.83 141.115 448.246 141.271 448.246 141.531V141.609L448.559 142.625L448.403 147L447.934 147.625L444.262 148.016H443.949L442.387 148.484C436.397 148.276 433.403 148.042 433.403 147.781C432.361 147.781 431.84 147.312 431.84 146.375C431.736 145.438 431.684 144.474 431.684 143.484C431.684 142.495 432.699 141.844 434.731 141.531C434.731 141.115 435.434 140.906 436.84 140.906L437.074 140.828V140.672L436.606 119.266C436.606 117.964 436.267 117.312 435.59 117.312H435.121C434.496 117.312 433.455 117.599 431.996 118.172L431.84 118.016V117.859C431.84 117.755 432.048 117.625 432.465 117.469V117.312C431.944 117.312 431.684 115.854 431.684 112.938C431.58 112.938 431.501 112.469 431.449 111.531C433.533 109.917 435.72 109.109 438.012 109.109H439.965C440.746 109.109 442.074 109.37 443.949 109.891V110.125C443.481 110.854 443.246 111.375 443.246 111.688V112.234C447.465 110.359 453.246 109.812 460.59 110.594ZM440.121 122.391V122.781C440.382 123.302 440.512 123.849 440.512 124.422C440.46 124.63 440.382 125.698 440.278 127.625L440.434 130.75H440.512C440.668 130.75 440.876 128.328 441.137 123.484C441.241 123.484 441.293 122.964 441.293 121.922C441.241 121.453 441.111 121.219 440.903 121.219H440.746C440.33 121.479 440.121 121.87 440.121 122.391ZM435.434 145.984L434.418 146.062V146.219C434.418 146.479 435.173 146.609 436.684 146.609H439.028L439.574 146.531C439.574 146.271 438.194 146.089 435.434 145.984ZM448.949 113.953V114.109C449.418 114.109 450.043 113.354 450.824 111.844V111.453H450.746C449.392 111.87 448.793 112.703 448.949 113.953ZM459.028 116.453H459.418C459.679 116.401 460.173 115.776 460.903 114.578V114.5C460.903 114.396 460.798 114.344 460.59 114.344C459.705 114.76 459.262 115.307 459.262 115.984C459.21 115.984 459.132 116.141 459.028 116.453ZM441.059 118.25H440.746L440.356 119.891C440.356 120.151 440.512 120.411 440.824 120.672H440.903C441.059 120.672 441.189 120.307 441.293 119.578L441.059 118.25ZM451.918 112.234L452.309 113.797H452.934V112.156L452.699 111.922H452.465C452.1 111.974 451.918 112.078 451.918 112.234ZM434.887 144.734L434.731 144.891L434.809 145.047H439.106V144.812L436.449 144.734H434.887ZM433.481 112.156C433.897 112.573 434.34 112.781 434.809 112.781L434.887 112.625V112.078L434.574 111.688C433.845 111.792 433.481 111.948 433.481 112.156ZM441.371 145.281L441.606 145.516H442.778L443.09 145.203C443.09 145.099 442.96 144.995 442.699 144.891C441.814 144.995 441.371 145.125 441.371 145.281ZM463.871 114.266H463.637V114.422C464.054 114.839 464.418 115.047 464.731 115.047H464.965V114.891C464.548 114.474 464.184 114.266 463.871 114.266ZM437.074 110.594H436.84V110.906L437.309 111.453H438.012V111.297L437.074 110.594ZM434.731 115.203V115.359H434.965C435.538 115.359 435.85 115.255 435.903 115.047L435.746 114.812H435.59C435.121 114.812 434.835 114.943 434.731 115.203ZM454.731 111.531L453.793 111.609V111.688L453.949 111.922H454.731C455.095 111.922 455.304 111.818 455.356 111.609L455.199 111.531H454.731ZM442.387 136.688L442.074 136.922V137.547H442.387L442.699 137.312V136.844L442.543 136.688H442.387ZM433.012 145.203L432.699 144.891L432.543 145.203V145.516L432.699 145.75H433.012V145.203ZM443.949 115.672L443.637 115.75V115.984L443.949 116.219H444.184L444.418 115.984V115.75L443.949 115.672ZM456.293 111.453V111.609H456.84L457.153 111.375L456.918 111.141C456.501 111.245 456.293 111.349 456.293 111.453ZM461.449 111.453L461.293 111.609V111.688L461.449 111.922H461.762L461.918 111.688V111.609L461.762 111.453H461.449ZM442.465 110.672L442.074 110.828V111.141H442.465L442.699 110.828L442.465 110.672ZM442.231 112.078L441.918 112.312V112.469L442.074 112.625L442.465 112.312V112.078H442.231ZM461.215 118.562V118.719H461.371L461.684 118.484V118.25H461.606C461.345 118.406 461.215 118.51 461.215 118.562ZM458.559 111.688L458.246 111.922V112H458.637L458.793 111.844V111.688H458.559ZM442.387 138.406H442.231V138.719H442.387V138.406ZM486.528 106.141H489.106C490.356 106.141 492.387 106.688 495.199 107.781C496.241 107.781 497.882 108.432 500.121 109.734H500.512C501.085 109.734 502.335 108.693 504.262 106.609C504.679 106.609 505.46 107.339 506.606 108.797C507.126 109.005 507.725 109.5 508.403 110.281V110.516C505.486 113.745 504.028 115.542 504.028 115.906C502.621 120.646 501.684 123.276 501.215 123.797C500.225 124.839 498.819 125.75 496.996 126.531C494.705 128.823 492.647 129.969 490.824 129.969L488.481 130.047L483.403 129.578H482.387C481.97 129.578 481.423 131.297 480.746 134.734L481.371 134.891H481.606C482.439 134.891 483.35 134.578 484.34 133.953L486.137 133.797H489.262C494.262 133.797 498.376 134.266 501.606 135.203C502.074 135.516 503.22 136.089 505.043 136.922L507.699 138.875C509.783 140.646 511.085 142.234 511.606 143.641C513.481 147.286 514.418 150.385 514.418 152.938C514.418 154.865 512.908 157.26 509.887 160.125L505.121 163.562C502.621 165.125 499.653 165.906 496.215 165.906L494.028 166.219C484.757 166.219 478.481 164.344 475.199 160.594C472.804 159.135 471.606 157.234 471.606 154.891C470.72 153.224 470.278 151.036 470.278 148.328L469.965 146.609L470.278 145.594H470.512C470.772 146.792 470.981 147.391 471.137 147.391H471.371C472.1 144.109 472.673 141.922 473.09 140.828V140.672H473.012C471.501 143.12 470.746 144.526 470.746 144.891H470.59C470.382 144.891 470.278 144.604 470.278 144.031C470.33 142.99 471.267 141.193 473.09 138.641C475.121 136.714 476.137 135.62 476.137 135.359C476.658 131.036 477.048 128.354 477.309 127.312C475.955 124.708 475.278 122.573 475.278 120.906L475.199 119.578C475.199 118.693 475.538 117.078 476.215 114.734C476.788 114.161 477.882 112.755 479.496 110.516C482.257 107.599 484.6 106.141 486.528 106.141ZM483.637 108.094V108.172C485.46 107.703 486.371 107.312 486.371 107V106.922H486.137C485.408 106.922 484.574 107.312 483.637 108.094ZM504.496 108.406L504.262 108.641V108.719C504.366 108.875 504.548 108.953 504.809 108.953H505.278V108.797L504.731 108.406H504.496ZM485.59 109.734V110.047H485.746L488.09 109.188V108.797H487.387C486.189 109.057 485.59 109.37 485.59 109.734ZM480.903 117.781V118.172C481.736 122.13 482.335 124.109 482.699 124.109C483.897 125.255 484.939 125.828 485.824 125.828C489.783 125.828 492.621 124.943 494.34 123.172C495.642 121.974 496.58 120.724 497.153 119.422C497.569 118.693 497.778 118.146 497.778 117.781V116.531C497.778 115.698 497.153 114.448 495.903 112.781C493.09 111.531 491.137 110.906 490.043 110.906C487.595 110.906 485.225 111.974 482.934 114.109C481.58 115.776 480.903 117 480.903 117.781ZM503.871 113.094V113.562H504.028C505.121 112.625 505.876 111.818 506.293 111.141V110.906H506.215C505.642 110.906 504.861 111.635 503.871 113.094ZM481.762 112.938L482.074 113.016C482.387 113.016 482.804 112.677 483.324 112V111.688H482.856C482.126 112.104 481.762 112.521 481.762 112.938ZM498.949 112.234H498.559V112.312C498.923 113.302 499.366 113.797 499.887 113.797C500.043 113.797 500.121 113.719 500.121 113.562C500.121 113.198 499.731 112.755 498.949 112.234ZM476.996 116.453H477.231C477.387 116.349 477.804 115.828 478.481 114.891L478.246 114.734C477.934 114.734 477.517 115.307 476.996 116.453ZM475.981 118.797C475.981 119.943 476.241 120.802 476.762 121.375H477.074C477.231 121.375 477.309 121.297 477.309 121.141C477.1 118.953 476.84 117.859 476.528 117.859C476.267 117.859 476.085 118.172 475.981 118.797ZM496.449 123.094V123.172H496.918C497.856 123.172 498.455 122.104 498.715 119.969V119.578L498.637 119.422H498.403C497.1 121.505 496.449 122.729 496.449 123.094ZM479.965 119.734L479.809 119.969C479.809 120.854 480.095 121.661 480.668 122.391H480.746V122.078C480.642 120.724 480.382 119.943 479.965 119.734ZM500.512 122.781H500.278L500.043 123.172V123.25H500.278C500.33 123.25 500.408 123.094 500.512 122.781ZM494.887 124.891H495.121C495.746 124.63 496.241 124.266 496.606 123.797L496.371 123.484C495.486 124.109 494.991 124.578 494.887 124.891ZM491.606 125.828V126.062L492.074 126.375H492.387C492.647 126.375 493.168 125.984 493.949 125.203V125.047H493.246C492.621 125.047 492.074 125.307 491.606 125.828ZM477.387 125.516H477.074V125.75C477.595 126.583 478.376 127.156 479.418 127.469V127.312C478.949 126.115 478.272 125.516 477.387 125.516ZM494.653 125.516L494.34 125.828V126.141H494.496L495.121 125.594V125.516H494.653ZM480.59 126.062L480.356 126.297C480.564 126.818 480.903 127.078 481.371 127.078L481.762 126.609C481.762 126.401 481.371 126.219 480.59 126.062ZM489.965 126.375L489.653 126.688C489.653 126.792 490.095 126.896 490.981 127L491.606 126.922C491.606 126.714 491.267 126.531 490.59 126.375H489.965ZM482.309 127L482.231 127.078V127.703L482.543 128.016H483.871V127.703C482.986 127.234 482.465 127 482.309 127ZM484.965 127.859L484.653 128.094C484.653 128.562 485.512 128.797 487.231 128.797H489.496C489.809 128.797 489.991 128.693 490.043 128.484C488.949 128.068 487.517 127.859 485.746 127.859H484.965ZM479.262 128.797L478.871 129.109V129.734C478.871 130.151 479.08 130.411 479.496 130.516L479.809 130.281V129.031L479.496 128.797H479.262ZM491.371 135.047L489.653 135.359V135.438C489.653 135.906 492.335 136.219 497.699 136.375L499.34 136.922H499.496C499.653 136.922 499.861 136.844 500.121 136.688L502.387 136.766V136.531C502.126 136.115 501.528 135.906 500.59 135.906H499.809C499.548 135.906 499.314 135.984 499.106 136.141L497.231 135.359C496.137 135.151 494.444 135.047 492.153 135.047H491.371ZM485.434 135.359H485.121H485.434ZM481.137 137.547C481.137 137.651 481.97 137.755 483.637 137.859C484.314 137.807 484.653 137.703 484.653 137.547C484.392 137.13 484.08 136.844 483.715 136.688H482.856C481.71 136.844 481.137 137.13 481.137 137.547ZM494.496 137.859H494.418V137.938C494.418 138.146 495.043 138.276 496.293 138.328L496.371 138.25V138.094L494.496 137.859ZM501.996 137.859L501.762 138.172L501.996 138.328L502.309 138.25V137.859H501.996ZM477.699 138.875L478.09 139.109H478.637L478.949 138.719V138.25L478.715 137.938C478.194 137.938 477.856 138.25 477.699 138.875ZM474.496 140.359V140.438L474.731 140.672C475.981 140.359 476.606 139.943 476.606 139.422V138.875L476.449 138.641C475.772 138.901 475.121 139.474 474.496 140.359ZM503.09 138.953H503.012C503.012 139.318 503.611 139.63 504.809 139.891L505.121 139.812V139.656C504.757 139.188 504.184 138.953 503.403 138.953H503.168H503.09ZM483.324 139.109L482.934 139.422L483.168 139.656H483.715V139.266L483.481 139.109H483.324ZM494.34 139.266L493.949 139.656C493.949 139.865 495.251 140.047 497.856 140.203C499.991 140.828 501.84 141.688 503.403 142.781L504.496 142.859L504.809 142.547V142.469C504.444 141.74 502.778 140.932 499.809 140.047C497.048 139.526 495.225 139.266 494.34 139.266ZM489.262 140.359V140.594L488.012 140.828L486.371 140.594L480.59 140.672C478.194 142.859 476.996 144.396 476.996 145.281L476.528 145.828V145.984C476.892 151.193 477.413 154.422 478.09 155.672C478.142 155.932 479.08 156.714 480.903 158.016C480.903 158.38 482.465 159.005 485.59 159.891C490.173 160.568 493.975 160.906 496.996 160.906C500.903 160.177 503.559 159.083 504.965 157.625C507.517 155.021 508.793 152.885 508.793 151.219V150.828C508.793 149.943 507.778 148.198 505.746 145.594C505.486 144.865 504.705 144.161 503.403 143.484C501.111 141.974 498.793 141.036 496.449 140.672L491.606 140.594V140.125V140.047H490.668C489.939 140.047 489.47 140.151 489.262 140.359ZM506.059 140.438H505.512V140.594L508.559 143.328H508.715V143.172C507.986 141.714 507.1 140.802 506.059 140.438ZM476.996 142.078V142.312H477.231L478.168 142V141.688H478.012C477.335 141.74 476.996 141.87 476.996 142.078ZM475.903 142.859V143.172H476.137L476.606 142.625V142.391C476.293 142.391 476.059 142.547 475.903 142.859ZM473.793 144.812L473.871 145.203H474.028C474.288 145.203 474.6 144.422 474.965 142.859H474.809C474.132 143.38 473.793 144.031 473.793 144.812ZM505.434 143.172H505.121C505.121 143.432 505.876 144.474 507.387 146.297V146.375H507.543V146.062C506.866 144.135 506.163 143.172 505.434 143.172ZM512.465 148.953H512.153V149.109L512.387 149.422L512.465 149.266V148.953ZM510.668 149.5H510.278V149.656L510.512 149.969H510.668L510.981 149.656L510.668 149.5ZM471.137 150.203L470.981 150.281V150.828L471.293 151.062H471.371V150.203H471.137ZM511.918 151.688V151.844C511.918 152.312 512.022 152.573 512.231 152.625H512.387C512.804 151.896 513.012 151.115 513.012 150.281L512.934 150.203H512.699C512.179 150.568 511.918 151.062 511.918 151.688ZM475.59 150.438L475.434 150.672L475.278 152.234C475.33 153.328 475.486 153.875 475.746 153.875H475.903C476.059 153.771 476.137 153.589 476.137 153.328V152.312C476.137 151.062 476.007 150.438 475.746 150.438H475.59ZM471.528 151.609H471.371V151.844C471.423 152.208 471.528 152.391 471.684 152.391L471.918 152.234V152L471.528 151.609ZM506.996 157V157.156L507.231 157.312C508.533 156.948 509.184 156.271 509.184 155.281V154.734H508.949C507.647 155.724 506.996 156.479 506.996 157ZM474.809 156.609L474.496 157C474.653 157.365 474.809 157.547 474.965 157.547L475.278 157.156C475.278 156.948 475.121 156.766 474.809 156.609ZM478.012 158.094H477.856V158.328L478.168 158.641H478.637V158.406C478.585 158.198 478.376 158.094 478.012 158.094ZM476.918 158.641L476.684 158.953V159.109H477.387V158.641H476.918ZM496.684 162.312C490.278 161.896 486.658 161.531 485.824 161.219L483.715 161.062V161.219C484.392 161.74 485.278 162.078 486.371 162.234L488.715 162.156L489.262 162.547L489.34 162.469H489.496C490.903 162.729 492.387 162.859 493.949 162.859H495.668C497.96 162.859 499.548 162.573 500.434 162C502.621 161.219 503.715 160.776 503.715 160.672V160.594C500.486 161.271 498.142 161.844 496.684 162.312ZM500.278 164.891H500.512C500.929 164.891 502.205 164.266 504.34 163.016V162.859H504.028C501.528 163.432 500.278 164.109 500.278 164.891ZM498.09 164.578V164.734H498.403C499.34 164.578 499.809 164.266 499.809 163.797H499.496C498.767 164.057 498.298 164.318 498.09 164.578ZM486.528 164.266L486.137 163.953L486.059 164.031V164.109L486.371 164.266H486.528ZM487.699 164.5H487.387V164.578C487.439 164.786 487.725 164.891 488.246 164.891H489.106C489.106 164.63 488.637 164.5 487.699 164.5ZM494.028 164.5L493.871 164.734V164.891C493.923 165.099 494.106 165.203 494.418 165.203H494.887L495.903 164.969V164.734L494.496 164.5H494.028ZM525.434 104.656L535.121 104.422C535.955 104.422 537.699 104.786 540.356 105.516C543.376 108.38 545.173 110.62 545.746 112.234C546.892 113.432 547.804 115.802 548.481 119.344C549.314 120.177 549.731 122.026 549.731 124.891L549.809 126.844L549.496 134.578C549.496 136.141 550.46 138.068 552.387 140.359C554.158 142.078 555.304 142.938 555.824 142.938V143.094C555.824 143.719 554.913 144.708 553.09 146.062C551.736 147.417 550.876 148.094 550.512 148.094H550.434C549.6 147.99 547.491 146.453 544.106 143.484C537.96 145.88 534.861 147.104 534.809 147.156C532.778 147.781 530.512 148.094 528.012 148.094H527.621C524.809 147.625 522.413 146.531 520.434 144.812C520.069 144.5 519.314 143.198 518.168 140.906C517.231 139.76 516.762 138.354 516.762 136.688V134.422C516.762 132.964 517.153 131.609 517.934 130.359C518.611 128.224 519.783 126.193 521.449 124.266C522.283 123.276 523.116 122.651 523.949 122.391C526.658 120.932 529.34 120.203 531.996 120.203L535.512 120.125H535.981C537.96 120.125 539.366 120.411 540.199 120.984H540.668C540.929 120.984 541.059 120.88 541.059 120.672C540.486 118.224 539.548 115.88 538.246 113.641C537.1 111.714 534.965 110.75 531.84 110.75L528.637 110.281C525.876 110.854 524.496 111.427 524.496 112C523.403 113.406 522.751 115.151 522.543 117.234C522.439 117.495 521.501 117.625 519.731 117.625L519.262 117.781C519.054 117.781 518.793 118.224 518.481 119.109C517.022 118.901 516.293 118.589 516.293 118.172C516.397 117.859 516.58 115.984 516.84 112.547C517.673 110.151 519.653 107.938 522.778 105.906C524.236 105.073 525.121 104.656 525.434 104.656ZM534.184 105.984L534.028 106.219L534.262 106.531H534.731L534.809 106.375L534.574 105.984H534.184ZM540.121 106.609H539.965V106.766C540.382 107.182 540.746 107.391 541.059 107.391H541.137V107.234C540.72 106.818 540.382 106.609 540.121 106.609ZM527.621 107V107.234C527.673 107.391 527.934 107.469 528.403 107.469C528.871 107.469 529.522 107.312 530.356 107V106.688H530.043C528.897 106.688 528.09 106.792 527.621 107ZM520.59 109.5V109.656H520.668C521.137 109.656 521.84 109.161 522.778 108.172V107.938H522.699C522.179 107.938 521.475 108.458 520.59 109.5ZM531.449 108.953L531.059 109.266L531.293 109.656H532.309L532.543 109.422L532.074 108.953H531.449ZM519.965 115.281L519.731 115.438V116.609H519.809C520.017 116.557 520.121 116.375 520.121 116.062V115.438L519.965 115.281ZM548.324 121.531H548.246V121.688C548.35 122.104 548.455 122.312 548.559 122.312L548.637 121.922C548.533 121.661 548.429 121.531 548.324 121.531ZM546.528 124.266L546.293 124.422V124.656C546.501 125.438 546.71 125.828 546.918 125.828H547.074C547.074 125.151 546.918 124.63 546.606 124.266H546.528ZM523.637 124.734L522.778 125.125V125.516H522.934C523.298 125.516 523.559 125.307 523.715 124.891V124.734H523.637ZM522.778 132.156C523.142 135.281 523.585 136.844 524.106 136.844L524.887 137.859V137.938L524.184 137.859V138.094C525.173 139.448 527.205 140.698 530.278 141.844C530.642 142.052 531.163 142.208 531.84 142.312C532.778 142.312 536.371 140.776 542.621 137.703C543.038 137.443 543.246 137.156 543.246 136.844V136.453C542.778 134.318 542.387 131.818 542.074 128.953L541.918 128.875C541.918 128.302 541.345 127.833 540.199 127.469C536.345 126.375 533.715 125.828 532.309 125.828C528.35 126.714 525.642 128.042 524.184 129.812C523.246 130.75 522.778 131.531 522.778 132.156ZM546.293 127.078L546.059 126.922V127.156H546.293V127.078ZM546.606 128.562H546.137V128.875L546.371 129.109L546.606 128.875V128.562ZM544.106 130.516L543.871 130.75L544.106 131.062L544.418 130.984V130.75L544.184 130.516H544.106ZM546.918 130.75H546.684V130.828C546.788 132.807 546.996 133.797 547.309 133.797L547.465 133.641V133.484C547.465 132.391 547.283 131.479 546.918 130.75ZM543.871 133.25L543.793 133.328V133.797L544.028 134.109H544.106L544.418 133.797V133.328L544.184 133.25H543.871ZM550.512 140.594H550.278V141.062C550.486 141.74 550.72 142.078 550.981 142.078H551.215V141.844C551.007 141.01 550.772 140.594 550.512 140.594ZM521.762 140.828L521.606 140.984V141.062L521.762 141.219H522.153V141.062L521.918 140.828H521.762ZM548.09 141.844L547.856 142.078C548.012 142.443 548.22 142.677 548.481 142.781H548.559L548.871 142.469V142.312L548.481 141.844H548.09ZM536.762 142.938V143.094H537.074C537.804 143.094 538.767 142.781 539.965 142.156V142.078H539.653C537.882 142.286 536.918 142.573 536.762 142.938ZM549.809 143.172L549.653 143.484V143.641L549.965 143.953H550.278L550.512 143.797V143.641L550.121 143.172H549.809ZM530.512 143.797L530.278 144.031C530.382 144.292 530.59 144.422 530.903 144.422C531.475 144.318 531.762 144.188 531.762 144.031V143.953L531.528 143.797H530.512ZM521.996 144.891L521.762 145.203C521.97 145.672 523.272 146.271 525.668 147C526.449 147.365 527.491 147.547 528.793 147.547V147.469C528.793 147.312 527.804 147.026 525.824 146.609C524.679 146.297 523.481 145.724 522.231 144.891H521.996ZM557.387 107.625L557.543 107.469C558.741 107.677 559.991 107.781 561.293 107.781H567.699L567.934 108.016C567.621 108.953 567.465 109.682 567.465 110.203V111.531C567.673 112.99 568.09 113.719 568.715 113.719C569.028 113.146 570.069 112.599 571.84 112.078C576.059 110.255 579.496 109.344 582.153 109.344C583.923 109.344 585.824 110.125 587.856 111.688C589.366 112.26 590.824 113.484 592.231 115.359C594.366 118.745 595.434 122.729 595.434 127.312V127.938L594.887 133.562L595.434 137.625L594.653 141.297V141.453V142.078L597.621 142.234H598.949C599.835 142.234 600.356 142.312 600.512 142.469C600.304 146.271 599.913 148.172 599.34 148.172C598.298 148.797 597.179 149.109 595.981 149.109H594.34C591.84 149.109 589.21 149.448 586.449 150.125C584.626 149.865 583.715 148.953 583.715 147.391L583.637 144.578C583.637 142.859 584.08 141.609 584.965 140.828C585.434 138.276 585.981 135.958 586.606 133.875L587.074 126.922C587.231 126.922 587.309 126.349 587.309 125.203C587.309 123.797 586.189 121.792 583.949 119.188C582.231 118.458 581.241 118.094 580.981 118.094C577.96 118.094 575.251 119.37 572.856 121.922C572.647 121.922 571.371 123.198 569.028 125.75C568.298 126.323 567.934 128.068 567.934 130.984C568.038 136.245 568.22 138.875 568.481 138.875C570.564 139.24 571.606 139.63 571.606 140.047V140.359L569.887 140.281L568.637 140.359V140.672C568.637 140.88 569.626 141.141 571.606 141.453C571.97 141.818 572.153 142.417 572.153 143.25V143.406C572.153 144.656 571.892 145.984 571.371 147.391L562.309 147.469C561.423 147.469 560.772 147.026 560.356 146.141C560.147 145.151 559.913 143.224 559.653 140.359C559.653 140.099 560.434 139.812 561.996 139.5L562.387 138.953V138.875C562.387 138.562 562.179 138.12 561.762 137.547V135.125V130.672L562.074 123.484C562.074 118.589 561.866 116.141 561.449 116.141H561.059L557.387 116.609C557.022 116.609 556.528 116.297 555.903 115.672V115.359C556.163 114.943 556.293 114.5 556.293 114.031L556.137 111.141L557.387 107.625ZM564.184 109.031L557.778 110.047V110.203C557.778 110.359 558.168 110.464 558.949 110.516C562.335 110.516 564.028 110.281 564.028 109.812L564.34 109.344V109.188H564.184V109.031ZM579.731 110.516V110.594C580.095 110.594 580.72 110.906 581.606 111.531L582.465 111.766L584.965 111.688L585.043 111.531V111.453C584.991 111.141 584.705 110.984 584.184 110.984H583.871L583.09 111.141C581.944 110.464 581.111 110.125 580.59 110.125C580.121 110.125 579.835 110.255 579.731 110.516ZM574.418 111.922V112L574.574 112.234C577.022 111.609 578.246 111.141 578.246 110.828H578.09C576.944 110.828 575.72 111.193 574.418 111.922ZM559.34 112L559.574 112.234H559.731C560.408 112.182 560.746 112.026 560.746 111.766L560.356 111.688C559.679 111.688 559.34 111.792 559.34 112ZM560.043 113.562V113.719L561.528 113.641H561.762C562.283 113.641 562.595 113.771 562.699 114.031V114.266C562.439 114.526 562.309 114.786 562.309 115.047C562.569 115.255 562.882 115.359 563.246 115.359C563.403 115.359 563.481 115.255 563.481 115.047L563.559 112.469L563.481 112.234H563.246C562.934 112.443 561.892 112.859 560.121 113.484L560.043 113.562ZM573.012 112.703L573.09 112.781V112.859C573.559 112.703 573.793 112.573 573.793 112.469V112.312H573.637C573.22 112.417 573.012 112.547 573.012 112.703ZM557.231 112.781V112.859C557.231 113.016 557.361 113.146 557.621 113.25C558.038 113.25 558.507 113.016 559.028 112.547V112.469H557.778C557.413 112.521 557.231 112.625 557.231 112.781ZM584.184 114.031C584.184 114.24 584.653 114.396 585.59 114.5C585.798 114.344 585.903 114.135 585.903 113.875C585.903 113.615 585.486 113.406 584.653 113.25C584.34 113.458 584.184 113.719 584.184 114.031ZM568.403 114.656V114.969C569.132 114.969 569.913 114.5 570.746 113.562V113.484L570.668 113.406H570.59C569.965 113.406 569.236 113.823 568.403 114.656ZM587.153 113.562L586.918 113.875C587.022 114.135 587.231 114.266 587.543 114.266H587.934L588.324 113.953V113.875C588.272 113.667 588.012 113.562 587.543 113.562H587.153ZM578.481 114.344V114.5H578.871C579.653 114.396 580.043 114.24 580.043 114.031V113.875H579.496C578.819 113.927 578.481 114.083 578.481 114.344ZM565.668 113.953H565.278L565.121 114.422V115.828C565.121 116.453 565.017 116.87 564.809 117.078V117.469L565.121 118.562V119.188C565.121 119.604 565.251 119.891 565.512 120.047C565.564 120.047 565.72 119.448 565.981 118.25C566.71 117.677 567.074 117.234 567.074 116.922C567.074 116.661 566.788 116.089 566.215 115.203C566.059 114.37 565.876 113.953 565.668 113.953ZM557.856 115.203V115.359H558.637L558.949 115.047V114.969L558.559 114.812C558.09 114.969 557.856 115.099 557.856 115.203ZM585.824 115.438L585.356 115.203L585.199 115.359V115.438L585.59 115.672H585.668L585.824 115.438ZM579.809 115.984L579.965 116.141H580.043C581.189 116.141 581.762 116.036 581.762 115.828L581.137 115.672C580.251 115.776 579.809 115.88 579.809 115.984ZM568.481 119.031V119.266C569.835 119.109 571.71 117.99 574.106 115.906V115.828H573.637C573.429 115.828 572.804 116.193 571.762 116.922C569.574 117.599 568.481 118.302 568.481 119.031ZM587.153 115.984H587.074V116.219C587.074 116.375 587.413 117.104 588.09 118.406C588.09 118.823 588.194 119.031 588.403 119.031L588.715 118.719V118.406C588.715 117.573 588.194 116.766 587.153 115.984ZM562.856 116.922L563.012 117.156H563.168L563.403 116.141H563.168C563.012 116.141 562.908 116.401 562.856 116.922ZM582.543 117.469V117.703H584.496L584.809 117.469V117.156L584.418 116.922H584.028C583.038 117.078 582.543 117.26 582.543 117.469ZM574.809 118.719C575.955 118.51 576.528 118.224 576.528 117.859L576.293 117.703H576.059C575.278 117.703 574.861 118.042 574.809 118.719ZM572.309 119.656V119.812H572.543C573.376 119.135 573.793 118.562 573.793 118.094H573.637V117.938C573.22 117.938 572.778 118.51 572.309 119.656ZM566.293 118.875L566.449 119.344C566.449 119.76 566.215 120.177 565.746 120.594C566.007 120.854 566.137 121.115 566.137 121.375C566.137 123.979 566.319 125.281 566.684 125.281H566.762C567.179 124.344 567.387 123.12 567.387 121.609C567.335 119.682 567.1 118.667 566.684 118.562H566.528C566.371 118.562 566.293 118.667 566.293 118.875ZM588.324 119.891V120.125C588.949 122.469 589.34 123.693 589.496 123.797L589.653 123.25V122.547C589.288 120.776 588.845 119.891 588.324 119.891ZM591.84 120.047H591.762C591.866 122.807 592.126 124.188 592.543 124.188H592.699C592.439 121.427 592.153 120.047 591.84 120.047ZM571.371 120.203L570.903 120.828V120.984L570.981 121.141H571.371L571.606 120.203H571.371ZM569.184 120.984L569.028 121.141L569.184 121.375H569.496V121.141L569.34 120.984H569.184ZM591.293 130.203V130.281L591.528 131.219H591.918C591.866 130.542 591.658 130.203 591.293 130.203ZM588.324 135.828L588.403 135.906H588.481C588.637 135.906 588.715 135.646 588.715 135.125V134.188C588.507 134.188 588.376 134.734 588.324 135.828ZM587.856 137.078C588.168 137.443 588.324 137.938 588.324 138.562H588.481L588.715 137.625V136.297C588.142 136.297 587.856 136.557 587.856 137.078ZM591.293 136.375H591.137V136.766H591.293V136.375ZM593.09 136.766L592.934 138.328V140.281H593.012C593.689 139.448 594.028 138.667 594.028 137.938V137.859C594.028 137.13 593.715 136.766 593.09 136.766ZM591.059 140.359V140.516H591.137L591.449 139.656V139.5H591.293C591.137 139.5 591.059 139.786 591.059 140.359ZM560.903 140.672L560.746 140.984V141.062C560.85 142 561.189 142.469 561.762 142.469H562.231L562.465 142.234V142.078C561.996 141.505 561.762 141.036 561.762 140.672H560.903ZM591.293 141.766H590.981V142.078L591.293 142.391L591.528 142.234V142.078L591.293 141.766ZM595.512 143.562V143.797C597.856 143.797 599.028 143.615 599.028 143.25V143.094H597.934C596.319 143.146 595.512 143.302 595.512 143.562ZM564.184 144.344C564.184 144.604 564.861 144.734 566.215 144.734C568.819 144.734 570.121 144.604 570.121 144.344C570.121 144.031 569.236 143.875 567.465 143.875C565.486 143.875 564.392 144.031 564.184 144.344ZM585.356 144.578H585.121V145.047L585.356 145.281H585.59L585.668 145.047V144.969L585.356 144.578ZM596.215 145.203V145.438C596.319 145.698 596.554 145.828 596.918 145.828C597.751 145.828 598.246 145.646 598.403 145.281V145.047C598.298 144.734 598.012 144.578 597.543 144.578H597.153C596.632 144.578 596.319 144.786 596.215 145.203ZM587.074 146.609C587.231 147.026 587.491 147.234 587.856 147.234C590.668 147.182 592.074 147 592.074 146.688C591.71 146.219 591.059 145.984 590.121 145.984C588.09 146.036 587.074 146.245 587.074 146.609ZM585.121 148.094L584.809 148.406V148.562C584.809 148.927 585.512 149.109 586.918 149.109H587.309L587.934 148.953V148.875C587.413 148.354 586.58 148.094 585.434 148.094H585.121ZM613.481 91.8438L616.137 91.4531C617.96 91.4531 619.392 92.3906 620.434 94.2656L620.981 96.7656C620.876 97.7552 620.304 99.0573 619.262 100.672C618.585 101.349 617.543 101.688 616.137 101.688C612.856 101.688 610.824 101.193 610.043 100.203C609.262 99.1615 608.897 97.7031 608.949 95.8281C608.741 95.8281 608.637 95.776 608.637 95.6719V95.5156C610.199 93.0677 611.814 91.8438 613.481 91.8438ZM611.918 93.7969V93.875C613.689 93.6667 614.574 93.4323 614.574 93.1719L614.184 93.0156C612.673 93.276 611.918 93.5365 611.918 93.7969ZM613.246 96.0625H613.324L613.793 96.1406H613.949C614.522 96.1406 614.887 95.9323 615.043 95.5156L614.965 95.3594H614.028C613.611 95.3594 613.35 95.5938 613.246 96.0625ZM618.871 95.3594L618.637 95.75V96.0625H618.715L618.949 95.75V95.3594H618.871ZM616.996 97.9375V98.1719H617.309C617.673 98.1719 617.96 97.9896 618.168 97.625V97.3906H618.012C617.647 97.3906 617.309 97.5729 616.996 97.9375ZM615.278 99.3438L615.043 99.5781V99.7344H616.449L616.684 99.5781L616.449 99.3438H615.278ZM605.356 106.766H605.59C606.007 107.13 606.528 107.312 607.153 107.312L608.168 106.844C615.251 106.844 618.793 107.052 618.793 107.469L618.871 108.016V109.344C619.34 110.385 619.574 111.375 619.574 112.312V113.562C618.949 122.052 618.533 128.927 618.324 134.188C618.22 134.5 618.116 135.047 618.012 135.828C618.064 136.036 618.298 136.141 618.715 136.141H618.949C621.762 136.141 623.168 136.479 623.168 137.156L623.09 137.312V137.781C623.715 139.031 624.028 141.01 624.028 143.719L624.34 146.844L624.106 147L620.668 147.156H612.856C607.022 147.156 604.106 146.688 604.106 145.75C604.106 145.177 603.949 144.604 603.637 144.031C603.793 143.667 604.054 143.38 604.418 143.172H604.653C604.861 143.38 605.095 143.484 605.356 143.484H605.512C607.022 143.484 608.819 143.354 610.903 143.094V142.938C606.423 142.625 604.184 142.26 604.184 141.844L604.106 141.219V140.359L603.949 138.328C603.949 137.807 605.903 137.547 609.809 137.547C610.33 137.547 610.59 136.375 610.59 134.031L611.528 113.484H611.371C609.913 113.484 609.184 113.38 609.184 113.172C609.184 113.12 609.262 113.042 609.418 112.938C606.293 112.938 604.731 112.573 604.731 111.844C604.522 111.792 604.418 111.583 604.418 111.219L604.809 110.281C604.809 110.073 604.653 109.786 604.34 109.422C604.757 109.005 605.043 108.172 605.199 106.922L605.356 106.766ZM606.606 108.328V108.641H606.996C608.35 108.641 609.028 108.536 609.028 108.328L608.871 108.016H608.637C607.283 108.016 606.606 108.12 606.606 108.328ZM617.231 107.781L616.996 108.016L617.309 108.25H617.465V108.016L617.231 107.781ZM608.324 109.422H606.918V109.656C606.918 109.865 607.283 109.969 608.012 109.969H608.871H609.106H611.684C612.465 109.969 612.856 109.839 612.856 109.578V109.5C612.856 109.24 611.345 109.214 608.324 109.422ZM615.278 109.5L614.574 109.422V109.578C614.939 109.578 615.382 109.839 615.903 110.359H616.059C616.163 110.359 616.215 110.281 616.215 110.125H616.371C616.58 110.125 616.71 110.359 616.762 110.828H616.918L618.012 110.047V109.578L616.371 109.5H615.278ZM614.965 113.875L615.356 115.047L614.809 116.453C615.017 116.922 615.199 117.156 615.356 117.156H615.434L615.59 116.688V116.219C615.59 114.344 615.876 113.406 616.449 113.406L616.684 113.094V112.781L616.449 112.547H615.981C615.304 112.547 614.965 112.99 614.965 113.875ZM612.543 121.297L612.309 131.375C612.361 131.74 612.439 131.922 612.543 131.922C612.699 131.922 612.804 131.688 612.856 131.219L612.778 130.047C613.038 129.786 613.324 128.745 613.637 126.922V126.453L613.481 125.359C613.793 125.099 613.949 124.917 613.949 124.812C613.741 124.24 613.637 123.667 613.637 123.094V122.938C613.845 122.938 614.106 120.021 614.418 114.188C614.262 113.771 614.106 113.562 613.949 113.562C613.168 113.562 612.699 116.141 612.543 121.297ZM616.371 114.422L616.059 114.5V114.969C616.059 115.281 616.189 115.516 616.449 115.672H616.684L616.918 115.359V114.969C616.814 114.708 616.632 114.526 616.371 114.422ZM615.981 127.156H615.59C615.173 129.083 614.965 130.516 614.965 131.453H615.043C615.304 131.453 615.642 130.385 616.059 128.25V127.703L615.981 127.156ZM614.496 134.5V135.047H614.653C614.913 134.943 615.043 134.63 615.043 134.109V133.562H614.809C614.705 133.562 614.6 133.875 614.496 134.5ZM614.653 135.672L614.418 135.984V136.375H614.653L614.965 136.141V135.906L614.731 135.672H614.653ZM620.903 137.547L620.668 137.625C620.981 137.885 621.554 138.042 622.387 138.094V137.859C622.387 137.651 622.048 137.547 621.371 137.547H620.903ZM621.215 140.828L620.278 141.062C620.382 141.688 620.85 142 621.684 142H621.918V141.766L621.762 141.531C621.762 141.479 621.97 141.323 622.387 141.062V140.672C622.387 140.307 622.283 140.099 622.074 140.047H621.762C621.606 140.099 621.423 140.359 621.215 140.828ZM606.293 140.125L605.746 140.281V140.359C606.163 140.776 607.778 141.01 610.59 141.062H611.137C611.554 141.062 611.814 140.932 611.918 140.672V140.516C609.731 140.255 607.856 140.125 606.293 140.125ZM613.637 141.062L613.949 141.453C614.418 141.453 614.653 141.193 614.653 140.672H614.262C613.949 140.672 613.741 140.802 613.637 141.062ZM620.981 142.625L620.746 142.938V143.094H620.903L621.137 142.781V142.625H620.981ZM614.965 143.094L613.949 143.172H612.856V143.484L613.949 143.562L616.215 143.406V143.172H615.903L614.965 143.094ZM622.934 145.75L622.621 145.984V146.219H623.09L623.168 145.984L623.09 145.75H622.934ZM650.434 103.797V103.641C650.903 104.109 651.944 104.474 653.559 104.734C654.6 104.734 656.788 105.932 660.121 108.328L661.137 108.719H661.528L662.934 109.422C664.34 110.411 665.147 111.167 665.356 111.688V111.844C665.356 112.052 665.043 112.443 664.418 113.016C664.262 113.901 663.168 115.62 661.137 118.172V118.484L661.215 119.266C660.486 119.266 659.757 119.448 659.028 119.812C658.715 119.812 658.429 119.448 658.168 118.719C656.658 117.781 655.903 117.026 655.903 116.453L656.84 113.953C656.84 112.964 655.121 112.26 651.684 111.844L646.606 111.531C644.835 111.531 642.413 112.234 639.34 113.641C637.673 114.526 636.371 116.349 635.434 119.109C634.705 121.557 634.106 123.016 633.637 123.484L632.856 122.938C632.491 123.302 632.309 123.901 632.309 124.734L633.324 124.188C633.481 124.188 633.585 124.37 633.637 124.734L633.09 128.328C633.298 128.38 633.793 129.917 634.574 132.938L634.34 133.406V133.719C634.6 133.979 634.809 134.839 634.965 136.297C635.434 137.859 636.918 139.266 639.418 140.516L643.559 143.562C648.194 143.562 652.283 142.547 655.824 140.516C659.366 137.443 661.137 135.438 661.137 134.5L660.824 133.328V133.172C660.929 132.859 662.074 131.609 664.262 129.422C664.366 129.422 664.783 129.786 665.512 130.516V130.828L665.199 130.906L664.574 130.828H664.496V131.141C666.475 131.297 667.465 131.792 667.465 132.625C668.298 133.719 669.158 135.385 670.043 137.625C670.356 137.625 670.616 138.25 670.824 139.5C671.449 139.76 671.814 140.047 671.918 140.359C671.918 140.828 671.606 141.089 670.981 141.141C669.783 141.505 668.663 142.365 667.621 143.719C665.798 141.896 664.835 140.984 664.731 140.984L660.434 143.719C659.028 144.448 657.699 145.307 656.449 146.297L648.403 148.875L647.153 149.031C645.486 149.031 643.012 148.51 639.731 147.469C636.189 145.958 634.262 144.786 633.949 143.953C629.574 138.693 627.387 134.63 627.387 131.766L627.153 129.109C627.569 127.13 627.778 124.891 627.778 122.391L629.887 117.312C629.887 115.854 630.876 113.979 632.856 111.688C633.845 109.344 636.684 107.13 641.371 105.047C643.142 104.474 646.163 104.057 650.434 103.797ZM637.309 108.016V108.328L641.371 106.766L643.949 105.594C644.939 105.385 645.434 105.203 645.434 105.047V104.969C643.194 104.969 640.512 105.984 637.387 108.016H637.309ZM652.699 105.516L652.231 105.438L652.074 105.516V105.75L652.309 105.906H652.699V105.516ZM644.887 107.938V108.328L645.746 108.484C648.819 108.484 650.538 108.224 650.903 107.703C650.903 107.547 650.486 107.443 649.653 107.391C647.361 107.443 645.772 107.625 644.887 107.938ZM652.543 107.938H651.606V108.016C651.606 108.328 652.126 108.536 653.168 108.641L653.403 108.328C653.403 108.068 653.116 107.938 652.543 107.938ZM654.262 108.641H654.106V108.719L654.34 109.109H654.574V108.875L654.262 108.641ZM641.84 109.422V109.734H642.153C643.35 109.474 643.949 109.214 643.949 108.953L643.715 108.719H643.559C642.413 109.083 641.84 109.318 641.84 109.422ZM636.215 108.875L635.824 109.188V109.422H636.059L636.528 108.953V108.875H636.215ZM646.215 110.281L646.996 110.438H647.074C648.741 110.385 649.626 110.203 649.731 109.891V109.656H648.871C647.1 109.656 646.215 109.865 646.215 110.281ZM651.996 109.734H651.293V109.891C651.293 110.047 651.996 110.177 653.403 110.281V110.125L651.996 109.734ZM658.637 110.75H658.246V111.062H658.403L658.637 110.828V110.75ZM639.34 110.906L639.028 111.375V111.453H639.34L639.574 111.141L639.34 110.906ZM662.465 112.625V112.703L662.934 112.859H663.012L663.403 112.391V112L663.246 111.844C662.725 111.844 662.465 112.104 662.465 112.625ZM635.121 113.406H635.278C636.007 112.99 636.371 112.573 636.371 112.156C635.746 112.156 635.33 112.573 635.121 113.406ZM632.621 116.453V116.531L632.856 116.766H632.934C633.507 116.297 633.793 115.854 633.793 115.438V115.281H633.637C632.96 115.646 632.621 116.036 632.621 116.453ZM633.09 118.172H632.856L631.449 120.594V120.984L631.684 121.297H631.918C632.126 121.297 632.517 120.438 633.09 118.719V118.172ZM629.887 128.328V128.562C629.887 129.083 630.121 129.396 630.59 129.5C630.955 129.5 631.007 128.667 630.746 127L630.668 126.609H630.434C630.278 126.609 630.095 127.182 629.887 128.328ZM632.309 129.734C631.996 129.995 631.84 130.411 631.84 130.984C631.84 131.245 632.074 131.766 632.543 132.547C632.856 133.432 633.246 133.875 633.715 133.875V133.641C633.715 132.859 633.246 131.557 632.309 129.734ZM666.528 133.328H666.215V133.641C666.215 134.266 667.205 136.271 669.184 139.656L669.653 139.734L669.887 139.5C669.054 138.094 668.298 136.479 667.621 134.656L666.528 133.328ZM664.653 134.891V135.047C665.017 136.193 665.356 136.766 665.668 136.766L665.824 136.453V136.141C665.616 135.307 665.225 134.891 664.653 134.891ZM632.231 135.906H631.996V136.297C632.205 136.818 632.543 137.078 633.012 137.078C633.012 136.661 632.751 136.271 632.231 135.906ZM659.653 138.875H659.809C660.069 138.823 660.408 138.458 660.824 137.781V137.547C660.304 137.547 659.913 137.99 659.653 138.875ZM633.715 137.625V138.094C633.975 138.562 634.262 138.797 634.574 138.797H634.731V138.406C634.522 137.885 634.184 137.625 633.715 137.625ZM632.778 139.656H632.309V139.734C632.309 140.516 633.142 141.349 634.809 142.234H635.512V142.078C635.512 141.505 634.6 140.698 632.778 139.656ZM666.606 141.297V141.766L666.84 141.922H667.309C667.465 141.922 667.856 141.557 668.481 140.828V140.75C668.481 140.594 668.038 140.385 667.153 140.125C666.788 140.125 666.606 140.516 666.606 141.297ZM654.809 142.703H654.887L655.043 142.781C656.345 142.26 656.996 141.714 656.996 141.141C655.538 141.818 654.809 142.339 654.809 142.703ZM635.199 143.406C635.668 144.188 637.543 145.359 640.824 146.922L642.465 147.391H642.621V147.156C639.288 145.75 637.257 144.526 636.528 143.484C636.267 143.276 636.007 143.172 635.746 143.172H635.356C635.251 143.172 635.199 143.25 635.199 143.406ZM638.168 143.172H637.934C637.934 143.589 638.871 144.109 640.746 144.734L644.574 145.984H645.356L645.668 145.672V145.438H645.59C644.548 145.438 643.585 145.073 642.699 144.344L641.449 143.875H641.293L640.824 144.344H640.746C640.382 144.344 639.522 143.953 638.168 143.172ZM653.715 145.672H653.871C655.017 145.359 655.929 144.812 656.606 144.031V143.953H656.449C655.929 143.953 655.017 144.526 653.715 145.672ZM651.528 144.5V144.578H651.684C652.153 144.578 652.439 144.448 652.543 144.188V144.031C651.866 144.083 651.528 144.24 651.528 144.5ZM647.153 147.938V148.016C647.153 148.276 647.699 148.458 648.793 148.562V148.25L648.715 148.094L649.028 147.859L648.715 147.469H648.246C647.517 147.573 647.153 147.729 647.153 147.938ZM689.028 100.203L690.199 99.8906C691.554 99.8906 695.434 100.672 701.84 102.234C704.861 103.641 706.606 104.344 707.074 104.344C707.491 103.771 707.699 103.042 707.699 102.156V102V101.453C707.699 100.776 708.168 100.438 709.106 100.438C709.731 99.9688 710.616 99.7344 711.762 99.7344C713.324 99.7344 714.106 99.9167 714.106 100.281L714.809 107.625V109.891C714.809 111.766 714.548 112.885 714.028 113.25C713.559 113.719 713.194 113.953 712.934 113.953C710.017 113.693 708.559 113.302 708.559 112.781C708.194 111.531 707.283 110.62 705.824 110.047C700.824 107.547 697.231 106.297 695.043 106.297L692.856 106.141C690.251 106.141 688.715 106.635 688.246 107.625C687.621 108.458 687.309 109.578 687.309 110.984V111.062C687.309 113.927 688.793 116.297 691.762 118.172C694.731 119.37 697.309 119.969 699.496 119.969C699.496 120.385 700.668 120.958 703.012 121.688C703.481 122.469 704.496 122.859 706.059 122.859C707.673 123.484 709.991 125.464 713.012 128.797L713.324 129.109V129.422C713.324 129.526 713.168 129.578 712.856 129.578V129.734C713.585 131.297 713.949 132.208 713.949 132.469C713.949 137.156 713.194 140.099 711.684 141.297C711.007 142.703 709.574 144.083 707.387 145.438C704.939 147.677 702.439 148.797 699.887 148.797H697.153C693.038 148.172 690.981 147.651 690.981 147.234C688.585 145.568 687.205 144.734 686.84 144.734C684.288 143.536 682.517 142.286 681.528 140.984H681.215C680.59 142.807 680.069 143.719 679.653 143.719C676.371 143.198 674.731 142.625 674.731 142C674.418 141.115 674.236 138.849 674.184 135.203L674.965 130.359C674.965 128.589 675.173 127.703 675.59 127.703L680.59 127.156C680.955 127.156 681.319 128.589 681.684 131.453L683.871 135.438C683.871 135.594 686.189 137.156 690.824 140.125C691.97 141.427 693.611 142.078 695.746 142.078H698.481C701.241 142.078 703.116 141.193 704.106 139.422C705.304 138.12 706.189 136.219 706.762 133.719V133.484C706.762 131.974 705.434 130.073 702.778 127.781C701.632 126.479 700.173 125.828 698.403 125.828C697.361 125.359 695.017 124.865 691.371 124.344L685.121 121.141L682.074 118.562C680.772 116.583 680.069 115.177 679.965 114.344L680.121 113.016L679.809 110.047C679.809 109.318 680.251 108.458 681.137 107.469C681.137 106.844 682.387 105.411 684.887 103.172C687.231 101.922 688.611 100.932 689.028 100.203ZM689.809 100.984V101.297C689.809 101.505 690.147 101.688 690.824 101.844C692.231 101.74 692.934 101.557 692.934 101.297V100.984C692.934 100.62 692.205 100.438 690.746 100.438C690.33 100.438 690.017 100.62 689.809 100.984ZM710.199 100.828V100.984C710.772 101.922 711.267 102.391 711.684 102.391C712.1 102.391 712.413 102.13 712.621 101.609V101.297C712.621 100.984 711.814 100.828 710.199 100.828ZM712.934 103.25L712.699 103.562L712.934 103.719H713.324V103.25H712.934ZM691.996 104.422C692.205 104.63 692.465 104.734 692.778 104.734C693.298 104.734 693.845 104.448 694.418 103.875L694.028 103.562H693.168C692.387 103.562 691.996 103.849 691.996 104.422ZM702.621 104.344V104.422C702.621 104.578 702.934 104.682 703.559 104.734H703.793V104.656C703.793 104.552 703.403 104.448 702.621 104.344ZM695.59 105.359L695.278 105.672C695.278 106.036 696.215 106.271 698.09 106.375V106.141C698.09 105.932 697.309 105.672 695.746 105.359H695.59ZM684.653 107.781V107.859L684.809 107.938H685.121C686.267 107.104 686.84 106.427 686.84 105.906H686.762H686.606C686.033 105.906 685.382 106.531 684.653 107.781ZM707.543 106.453L707.387 106.609C708.116 107.182 708.949 107.573 709.887 107.781L709.965 107.625V107.469C709.965 107.208 709.21 106.87 707.699 106.453H707.543ZM684.34 106.609L684.106 106.688L684.184 106.844V106.922L684.496 106.844V106.609H684.34ZM703.559 107.234L703.481 107.312V107.469C705.095 108.406 706.111 108.875 706.528 108.875V108.797C706.528 108.484 705.538 107.964 703.559 107.234ZM682.153 107.469H681.762L681.684 108.016V108.25L681.762 108.406L682.153 107.625V107.469ZM681.371 109.344L681.137 109.422C681.241 110.411 681.371 111.115 681.528 111.531H681.762V111.453L681.684 109.344H681.371ZM683.481 110.047L683.168 110.281V110.516H683.403L683.793 110.203V110.047H683.481ZM709.653 112.078L709.34 112.234C709.757 112.495 710.512 112.625 711.606 112.625L713.168 112.547V112.234C712.231 112.13 711.267 112.078 710.278 112.078H709.653ZM686.762 116.453L686.606 116.531V116.688L686.762 116.922H687.543V116.688C687.491 116.531 687.231 116.453 686.762 116.453ZM683.168 116.688L683.012 116.922V117L683.168 117.156H683.403V116.922L683.168 116.688ZM684.574 117.156H684.496V117.312C684.861 118.458 685.225 119.031 685.59 119.031H685.903L686.293 118.641V118.562C685.616 117.625 685.043 117.156 684.574 117.156ZM688.481 117.156L688.324 117.312V117.781L688.793 118.25H689.028L689.262 118.094V117.703C689.054 117.339 688.793 117.156 688.481 117.156ZM690.981 119.031L690.824 119.188V119.266C691.501 119.891 692.517 120.438 693.871 120.906L694.028 120.672C694.028 120.359 693.012 119.812 690.981 119.031ZM695.278 120.984C695.278 121.193 697.126 121.74 700.824 122.625L701.84 122.703H702.074V122.625C700.512 121.427 698.611 120.724 696.371 120.516C695.642 120.776 695.278 120.932 695.278 120.984ZM688.559 121.297H688.481C688.481 121.661 688.819 121.948 689.496 122.156L689.653 122.078C689.653 121.818 689.288 121.557 688.559 121.297ZM696.215 123.25V123.562L697.543 124.031H698.403V123.797C697.465 123.432 696.736 123.25 696.215 123.25ZM704.574 124.344H703.871V124.578C704.184 124.891 705.564 125.672 708.012 126.922C709.054 127.859 709.861 128.328 710.434 128.328H710.512L710.668 128.094C709.47 126.531 707.439 125.281 704.574 124.344ZM706.528 129.109H706.449V129.5C706.449 130.021 706.892 130.646 707.778 131.375H708.246V130.75C708.246 130.125 707.673 129.578 706.528 129.109ZM678.403 130.203H678.012V130.516L678.168 130.672L678.481 130.516L678.403 130.203ZM675.356 136.453L675.434 138.406H675.512C675.876 138.198 676.059 136.974 676.059 134.734V134.109L675.903 133.953H675.746C675.59 133.953 675.46 134.786 675.356 136.453ZM707.934 135.203H707.543V135.594L707.778 135.672L708.012 135.438L707.934 135.203ZM712.387 135.203L711.762 135.828V136.219L711.918 136.453H712.153C712.465 136.401 712.621 135.984 712.621 135.203H712.387ZM681.449 137.859H681.215V138.172C681.996 139.161 682.751 139.656 683.481 139.656H683.637V139.422C682.491 138.38 681.762 137.859 681.449 137.859ZM705.668 140.672V140.984H705.824C706.293 140.672 706.684 140.229 706.996 139.656L706.84 139.422C706.423 139.682 706.033 140.099 705.668 140.672ZM677.856 140.516H677.465V140.828L677.856 141.062L678.168 140.984V140.828L677.856 140.516ZM709.887 141.375L707.231 143.562V143.719C707.231 143.823 707.335 143.875 707.543 143.875C708.168 143.875 709.028 143.042 710.121 141.375H709.887ZM691.293 144.891L689.028 144.734V144.891C689.028 145.099 689.705 145.359 691.059 145.672L691.371 145.984H691.762C691.658 145.255 691.501 144.891 691.293 144.891ZM693.871 145.984L693.637 145.75V146.062H693.871V145.984ZM693.168 146.844H693.012L693.324 147.234H693.949V147.156C693.897 146.948 693.637 146.844 693.168 146.844ZM702.231 146.844L702.074 147V147.234L702.231 147.391H702.543C703.533 147.339 704.028 147.208 704.028 147L703.793 146.844H702.231ZM694.731 147.312C695.46 147.729 696.449 147.938 697.699 147.938H697.856L701.215 147.781V147.625C701.059 147.208 699.262 147 695.824 147C695.095 147 694.731 147.104 694.731 147.312Z" fill="white"/>
</svg>
