<svg width="1100" height="1100" viewBox="0 0 1100 1100" fill="none" xmlns="http://www.w3.org/2000/svg">
<circle cx="550" cy="550" r="550" fill="#05E21B"/>
<circle cx="549.5" cy="550.5" r="466.5" fill="black" stroke="white" stroke-width="8"/>
<path d="M394.627 612.56C409.147 612.56 420.487 616.76 428.647 625.16C436.807 633.56 440.887 645.74 440.887 661.7V740H423.067V662.24C423.067 651.2 420.187 642.86 414.427 637.22C408.667 631.46 401.047 628.58 391.567 628.58C381.127 628.58 372.847 631.58 366.727 637.58C360.727 643.46 357.727 652.52 357.727 664.76V740H339.907V662.24C339.907 651.08 337.147 642.68 331.627 637.04C326.227 631.4 318.787 628.58 309.307 628.58C298.747 628.58 290.347 631.58 284.107 637.58C277.987 643.58 274.927 652.64 274.927 664.76V740H256.927V614H274.207V632.36C277.927 626.12 283.147 621.26 289.867 617.78C296.707 614.3 304.627 612.56 313.627 612.56C322.987 612.56 331.027 614.42 337.747 618.14C344.587 621.86 349.627 627.02 352.867 633.62C356.827 626.9 362.407 621.74 369.607 618.14C376.927 614.42 385.267 612.56 394.627 612.56ZM571.489 726.86C566.089 731.42 559.009 735.02 550.249 737.66C541.489 740.18 531.949 741.44 521.629 741.44C510.109 741.44 500.329 739.94 492.289 736.94C484.249 733.82 478.189 729.56 474.109 724.16C470.029 718.76 467.989 712.52 467.989 705.44C467.989 698.24 470.029 692.06 474.109 686.9C478.309 681.62 483.709 677.84 490.309 675.56C485.029 673.16 480.889 669.56 477.889 664.76C474.889 659.84 473.389 654.2 473.389 647.84C473.389 641.24 475.249 635.3 478.969 630.02C482.809 624.74 488.569 620.54 496.249 617.42C503.929 614.18 513.289 612.56 524.329 612.56C532.129 612.56 539.689 613.4 547.009 615.08C554.449 616.76 560.869 619.16 566.269 622.28L561.049 636.68C550.249 630.92 538.249 628.04 525.049 628.04C514.129 628.04 505.789 630.02 500.029 633.98C494.269 637.82 491.389 642.86 491.389 649.1C491.389 655.34 493.609 660.14 498.049 663.5C502.489 666.86 508.849 668.54 517.129 668.54H549.529V684.02H516.409C506.929 684.02 499.489 685.7 494.089 689.06C488.689 692.42 485.989 697.46 485.989 704.18C485.989 711.02 489.049 716.36 495.169 720.2C501.289 724.04 510.409 725.96 522.529 725.96C530.929 725.96 538.909 724.82 546.469 722.54C554.149 720.14 560.449 716.9 565.369 712.82L571.489 726.86ZM652.228 612.56C667.348 612.56 679.168 617.12 687.688 626.24C696.208 635.36 700.468 648.38 700.468 665.3V740H682.648V665.84C682.648 653.6 679.648 644.36 673.648 638.12C667.648 631.76 659.308 628.58 648.628 628.58C637.108 628.58 628.048 631.94 621.448 638.66C614.848 645.38 611.548 655.34 611.548 668.54V740H593.548V614H610.828V631.82C619.348 618.98 633.148 612.56 652.228 612.56ZM737.162 614H790.262C803.582 614 815.402 616.64 825.722 621.92C836.042 627.2 844.022 634.64 849.662 644.24C855.422 653.72 858.302 664.64 858.302 677C858.302 689.36 855.422 700.34 849.662 709.94C844.022 719.42 836.042 726.8 825.722 732.08C815.402 737.36 803.582 740 790.262 740H737.162V614ZM789.182 724.34C799.382 724.34 808.322 722.36 816.002 718.4C823.802 714.44 829.802 708.92 834.002 701.84C838.202 694.64 840.302 686.36 840.302 677C840.302 667.64 838.202 659.42 834.002 652.34C829.802 645.14 823.802 639.56 816.002 635.6C808.322 631.64 799.382 629.66 789.182 629.66H755.162V724.34H789.182Z" fill="white"/>
<path d="M891.868 784L863 755.132L834.132 784L863 812.868L891.868 784ZM741.915 779C739.153 779 736.915 781.239 736.915 784C736.915 786.761 739.153 789 741.915 789V779ZM863 779H741.915V789H863V779Z" fill="#05E21B"/>
<line x1="720" y1="784" x2="680.959" y2="784" stroke="white" stroke-width="10" stroke-linecap="round"/>
<line x1="654" y1="784" x2="574" y2="784" stroke="white" stroke-width="10" stroke-linecap="round"/>
<line x1="545" y1="784" x2="505" y2="784" stroke="#05E21B" stroke-width="10" stroke-linecap="round"/>
<line x1="477" y1="784" x2="367" y2="784" stroke="white" stroke-width="10" stroke-linecap="round"/>
<line x1="337" y1="784" x2="327" y2="784" stroke="#05E21B" stroke-width="10" stroke-linecap="round"/>
<line x1="300" y1="784" x2="220" y2="784" stroke="white" stroke-width="10" stroke-linecap="round"/>
<path d="M186.132 479L215 507.868L243.868 479L215 450.132L186.132 479ZM336.085 484C338.847 484 341.085 481.761 341.085 479C341.085 476.239 338.847 474 336.085 474V484ZM215 484H336.085V474H215V484Z" fill="#05E21B"/>
<line x1="358" y1="479" x2="397.041" y2="479" stroke="white" stroke-width="10" stroke-linecap="round"/>
<line x1="424" y1="479" x2="504" y2="479" stroke="white" stroke-width="10" stroke-linecap="round"/>
<line x1="533" y1="479" x2="573" y2="479" stroke="#05E21B" stroke-width="10" stroke-linecap="round"/>
<line x1="601" y1="479" x2="711" y2="479" stroke="white" stroke-width="10" stroke-linecap="round"/>
<line x1="741" y1="479" x2="751" y2="479" stroke="#05E21B" stroke-width="10" stroke-linecap="round"/>
<line x1="778" y1="479" x2="858" y2="479" stroke="white" stroke-width="10" stroke-linecap="round"/>
<path d="M302.218 554.152C306.122 555.24 309.194 557.224 311.434 560.104C313.674 562.92 314.794 566.504 314.794 570.856C314.794 576.68 312.586 581.16 308.17 584.296C303.818 587.432 297.45 589 289.066 589H257.002V521.8H287.146C294.826 521.8 300.746 523.336 304.906 526.408C309.13 529.48 311.242 533.736 311.242 539.176C311.242 542.696 310.41 545.736 308.746 548.296C307.146 550.856 304.97 552.808 302.218 554.152ZM266.602 529.576V551.08H286.282C291.21 551.08 294.986 550.184 297.61 548.392C300.298 546.536 301.642 543.848 301.642 540.328C301.642 536.808 300.298 534.152 297.61 532.36C294.986 530.504 291.21 529.576 286.282 529.576H266.602ZM288.682 581.224C294.122 581.224 298.218 580.328 300.97 578.536C303.722 576.744 305.098 573.928 305.098 570.088C305.098 562.6 299.626 558.856 288.682 558.856H266.602V581.224H288.682ZM329.658 521.8H339.258V580.648H375.642V589H329.658V521.8ZM436.018 581.992C433.138 584.424 429.362 586.344 424.69 587.752C420.018 589.096 414.93 589.768 409.426 589.768C403.282 589.768 398.066 588.968 393.778 587.368C389.49 585.704 386.258 583.432 384.082 580.552C381.906 577.672 380.818 574.344 380.818 570.568C380.818 566.728 381.906 563.432 384.082 560.68C386.322 557.864 389.202 555.848 392.722 554.632C389.906 553.352 387.698 551.432 386.098 548.872C384.498 546.248 383.698 543.24 383.698 539.848C383.698 536.328 384.69 533.16 386.674 530.344C388.722 527.528 391.794 525.288 395.89 523.624C399.986 521.896 404.978 521.032 410.866 521.032C415.026 521.032 419.058 521.48 422.962 522.376C426.93 523.272 430.354 524.552 433.234 526.216L430.45 533.896C424.69 530.824 418.29 529.288 411.25 529.288C405.426 529.288 400.978 530.344 397.906 532.456C394.834 534.504 393.298 537.192 393.298 540.52C393.298 543.848 394.482 546.408 396.85 548.2C399.218 549.992 402.61 550.888 407.026 550.888H424.306V559.144H406.642C401.586 559.144 397.618 560.04 394.738 561.832C391.858 563.624 390.418 566.312 390.418 569.896C390.418 573.544 392.05 576.392 395.314 578.44C398.578 580.488 403.442 581.512 409.906 581.512C414.386 581.512 418.642 580.904 422.674 579.688C426.77 578.408 430.13 576.68 432.754 574.504L436.018 581.992ZM479.079 521.032C487.143 521.032 493.447 523.464 497.991 528.328C502.535 533.192 504.807 540.136 504.807 549.16V589H495.303V549.448C495.303 542.92 493.703 537.992 490.503 534.664C487.303 531.272 482.855 529.576 477.159 529.576C471.015 529.576 466.183 531.368 462.663 534.952C459.143 538.536 457.383 543.848 457.383 550.888V589H447.783V521.8H456.999V531.304C461.543 524.456 468.903 521.032 479.079 521.032ZM524.377 521.8H552.697C559.801 521.8 566.105 523.208 571.609 526.024C577.113 528.84 581.369 532.808 584.377 537.928C587.449 542.984 588.985 548.808 588.985 555.4C588.985 561.992 587.449 567.848 584.377 572.968C581.369 578.024 577.113 581.96 571.609 584.776C566.105 587.592 559.801 589 552.697 589H524.377V521.8ZM552.121 580.648C557.561 580.648 562.329 579.592 566.425 577.48C570.585 575.368 573.785 572.424 576.025 568.648C578.265 564.808 579.385 560.392 579.385 555.4C579.385 550.408 578.265 546.024 576.025 542.248C573.785 538.408 570.585 535.432 566.425 533.32C562.329 531.208 557.561 530.152 552.121 530.152H533.977V580.648H552.121ZM657.695 521.032C666.655 521.032 673.727 523.656 678.911 528.904C684.095 534.088 686.687 541.544 686.687 551.272V589H677.087V570.472H638.303V589H628.895V551.272C628.895 541.544 631.487 534.088 636.671 528.904C641.855 523.656 648.863 521.032 657.695 521.032ZM677.087 562.12V550.408C677.087 543.56 675.359 538.376 671.903 534.856C668.511 531.336 663.775 529.576 657.695 529.576C651.615 529.576 646.847 531.336 643.391 534.856C639.999 538.376 638.303 543.56 638.303 550.408V562.12H677.087ZM737.548 521.032C745.612 521.032 751.916 523.464 756.46 528.328C761.004 533.192 763.276 540.136 763.276 549.16V589H753.772V549.448C753.772 542.92 752.172 537.992 748.972 534.664C745.772 531.272 741.324 529.576 735.628 529.576C729.484 529.576 724.652 531.368 721.132 534.952C717.612 538.536 715.852 543.848 715.852 550.888V589H706.252V521.8H715.468V531.304C720.012 524.456 727.372 521.032 737.548 521.032ZM782.846 521.8H811.166C818.27 521.8 824.574 523.208 830.078 526.024C835.582 528.84 839.838 532.808 842.846 537.928C845.918 542.984 847.454 548.808 847.454 555.4C847.454 561.992 845.918 567.848 842.846 572.968C839.838 578.024 835.582 581.96 830.078 584.776C824.574 587.592 818.27 589 811.166 589H782.846V521.8ZM810.59 580.648C816.03 580.648 820.798 579.592 824.894 577.48C829.054 575.368 832.254 572.424 834.494 568.648C836.734 564.808 837.854 560.392 837.854 555.4C837.854 550.408 836.734 546.024 834.494 542.248C832.254 538.408 829.054 535.432 824.894 533.32C820.798 531.208 816.03 530.152 810.59 530.152H792.446V580.648H810.59Z" fill="white"/>
<path d="M530.065 396C403.614 354.718 430.711 176.615 539.097 219.372C536.539 201.877 531.78 192.743 515.205 178.09L530.065 168.949L557.161 219.372C679.241 175.141 686.817 368.577 567.65 396H530.065Z" fill="#05E21B"/>
<path d="M549.586 368.577V249.744L569.398 234.41C662.634 205.513 656.515 357.962 569.398 377.718L549.586 368.577Z" fill="black" stroke="black"/>
<ellipse cx="575.517" cy="299.577" rx="7.28402" ry="17.3974" fill="#05E21B"/>
<ellipse cx="609.776" cy="300.237" rx="7.28402" ry="17.3974" fill="#05E21B"/>
<path d="M602.905 166.002C571.422 165.666 562.611 205.376 562.406 207.284C588.598 199.241 596.835 188.837 602.905 166.002Z" fill="#05E21B"/>
</svg>
