<svg width="1100" height="1100" viewBox="0 0 1100 1100" fill="none" xmlns="http://www.w3.org/2000/svg">
<circle cx="550" cy="550" r="550" fill="#05E21B"/>
<circle cx="506.5" cy="471.5" r="462.5" fill="black"/>
<path d="M351.627 533.56C366.147 533.56 377.487 537.76 385.647 546.16C393.807 554.56 397.887 566.74 397.887 582.7V661H380.067V583.24C380.067 572.2 377.187 563.86 371.427 558.22C365.667 552.46 358.047 549.58 348.567 549.58C338.127 549.58 329.847 552.58 323.727 558.58C317.727 564.46 314.727 573.52 314.727 585.76V661H296.907V583.24C296.907 572.08 294.147 563.68 288.627 558.04C283.227 552.4 275.787 549.58 266.307 549.58C255.747 549.58 247.347 552.58 241.107 558.58C234.987 564.58 231.927 573.64 231.927 585.76V661H213.927V535H231.207V553.36C234.927 547.12 240.147 542.26 246.867 538.78C253.707 535.3 261.627 533.56 270.627 533.56C279.987 533.56 288.027 535.42 294.747 539.14C301.587 542.86 306.627 548.02 309.867 554.62C313.827 547.9 319.407 542.74 326.607 539.14C333.927 535.42 342.267 533.56 351.627 533.56ZM528.489 647.86C523.089 652.42 516.009 656.02 507.249 658.66C498.489 661.18 488.949 662.44 478.629 662.44C467.109 662.44 457.329 660.94 449.289 657.94C441.249 654.82 435.189 650.56 431.109 645.16C427.029 639.76 424.989 633.52 424.989 626.44C424.989 619.24 427.029 613.06 431.109 607.9C435.309 602.62 440.709 598.84 447.309 596.56C442.029 594.16 437.889 590.56 434.889 585.76C431.889 580.84 430.389 575.2 430.389 568.84C430.389 562.24 432.249 556.3 435.969 551.02C439.809 545.74 445.569 541.54 453.249 538.42C460.929 535.18 470.289 533.56 481.329 533.56C489.129 533.56 496.689 534.4 504.009 536.08C511.449 537.76 517.869 540.16 523.269 543.28L518.049 557.68C507.249 551.92 495.249 549.04 482.049 549.04C471.129 549.04 462.789 551.02 457.029 554.98C451.269 558.82 448.389 563.86 448.389 570.1C448.389 576.34 450.609 581.14 455.049 584.5C459.489 587.86 465.849 589.54 474.129 589.54H506.529V605.02H473.409C463.929 605.02 456.489 606.7 451.089 610.06C445.689 613.42 442.989 618.46 442.989 625.18C442.989 632.02 446.049 637.36 452.169 641.2C458.289 645.04 467.409 646.96 479.529 646.96C487.929 646.96 495.909 645.82 503.469 643.54C511.149 641.14 517.449 637.9 522.369 633.82L528.489 647.86ZM609.228 533.56C624.348 533.56 636.168 538.12 644.688 547.24C653.208 556.36 657.468 569.38 657.468 586.3V661H639.648V586.84C639.648 574.6 636.648 565.36 630.648 559.12C624.648 552.76 616.308 549.58 605.628 549.58C594.108 549.58 585.048 552.94 578.448 559.66C571.848 566.38 568.548 576.34 568.548 589.54V661H550.548V535H567.828V552.82C576.348 539.98 590.148 533.56 609.228 533.56ZM694.162 535H747.262C760.582 535 772.402 537.64 782.722 542.92C793.042 548.2 801.022 555.64 806.662 565.24C812.422 574.72 815.302 585.64 815.302 598C815.302 610.36 812.422 621.34 806.662 630.94C801.022 640.42 793.042 647.8 782.722 653.08C772.402 658.36 760.582 661 747.262 661H694.162V535ZM746.182 645.34C756.382 645.34 765.322 643.36 773.002 639.4C780.802 635.44 786.802 629.92 791.002 622.84C795.202 615.64 797.302 607.36 797.302 598C797.302 588.64 795.202 580.42 791.002 573.34C786.802 566.14 780.802 560.56 773.002 556.6C765.322 552.64 756.382 550.66 746.182 550.66H712.162V645.34H746.182Z" fill="white"/>
<path d="M848.868 705L820 676.132L791.132 705L820 733.868L848.868 705ZM698.915 700C696.153 700 693.915 702.239 693.915 705C693.915 707.761 696.153 710 698.915 710V700ZM820 700H698.915V710H820V700Z" fill="#05E21B"/>
<line x1="677" y1="705" x2="637.959" y2="705" stroke="white" stroke-width="10" stroke-linecap="round"/>
<line x1="611" y1="705" x2="531" y2="705" stroke="white" stroke-width="10" stroke-linecap="round"/>
<line x1="502" y1="705" x2="462" y2="705" stroke="#05E21B" stroke-width="10" stroke-linecap="round"/>
<line x1="434" y1="705" x2="324" y2="705" stroke="white" stroke-width="10" stroke-linecap="round"/>
<line x1="294" y1="705" x2="284" y2="705" stroke="#05E21B" stroke-width="10" stroke-linecap="round"/>
<line x1="257" y1="705" x2="177" y2="705" stroke="white" stroke-width="10" stroke-linecap="round"/>
<path d="M143.132 400L172 428.868L200.868 400L172 371.132L143.132 400ZM293.085 405C295.847 405 298.085 402.761 298.085 400C298.085 397.239 295.847 395 293.085 395V405ZM172 405H293.085V395H172V405Z" fill="#05E21B"/>
<line x1="315" y1="400" x2="354.041" y2="400" stroke="white" stroke-width="10" stroke-linecap="round"/>
<line x1="381" y1="400" x2="461" y2="400" stroke="white" stroke-width="10" stroke-linecap="round"/>
<line x1="490" y1="400" x2="530" y2="400" stroke="#05E21B" stroke-width="10" stroke-linecap="round"/>
<line x1="558" y1="400" x2="668" y2="400" stroke="white" stroke-width="10" stroke-linecap="round"/>
<line x1="698" y1="400" x2="708" y2="400" stroke="#05E21B" stroke-width="10" stroke-linecap="round"/>
<line x1="735" y1="400" x2="815" y2="400" stroke="white" stroke-width="10" stroke-linecap="round"/>
<path d="M259.218 475.152C263.122 476.24 266.194 478.224 268.434 481.104C270.674 483.92 271.794 487.504 271.794 491.856C271.794 497.68 269.586 502.16 265.17 505.296C260.818 508.432 254.45 510 246.066 510H214.002V442.8H244.146C251.826 442.8 257.746 444.336 261.906 447.408C266.13 450.48 268.242 454.736 268.242 460.176C268.242 463.696 267.41 466.736 265.746 469.296C264.146 471.856 261.97 473.808 259.218 475.152ZM223.602 450.576V472.08H243.282C248.21 472.08 251.986 471.184 254.61 469.392C257.298 467.536 258.642 464.848 258.642 461.328C258.642 457.808 257.298 455.152 254.61 453.36C251.986 451.504 248.21 450.576 243.282 450.576H223.602ZM245.682 502.224C251.122 502.224 255.218 501.328 257.97 499.536C260.722 497.744 262.098 494.928 262.098 491.088C262.098 483.6 256.626 479.856 245.682 479.856H223.602V502.224H245.682ZM286.658 442.8H296.258V501.648H332.642V510H286.658V442.8ZM393.018 502.992C390.138 505.424 386.362 507.344 381.69 508.752C377.018 510.096 371.93 510.768 366.426 510.768C360.282 510.768 355.066 509.968 350.778 508.368C346.49 506.704 343.258 504.432 341.082 501.552C338.906 498.672 337.818 495.344 337.818 491.568C337.818 487.728 338.906 484.432 341.082 481.68C343.322 478.864 346.202 476.848 349.722 475.632C346.906 474.352 344.698 472.432 343.098 469.872C341.498 467.248 340.698 464.24 340.698 460.848C340.698 457.328 341.69 454.16 343.674 451.344C345.722 448.528 348.794 446.288 352.89 444.624C356.986 442.896 361.978 442.032 367.866 442.032C372.026 442.032 376.058 442.48 379.962 443.376C383.93 444.272 387.354 445.552 390.234 447.216L387.45 454.896C381.69 451.824 375.29 450.288 368.25 450.288C362.426 450.288 357.978 451.344 354.906 453.456C351.834 455.504 350.298 458.192 350.298 461.52C350.298 464.848 351.482 467.408 353.85 469.2C356.218 470.992 359.61 471.888 364.026 471.888H381.306V480.144H363.642C358.586 480.144 354.618 481.04 351.738 482.832C348.858 484.624 347.418 487.312 347.418 490.896C347.418 494.544 349.05 497.392 352.314 499.44C355.578 501.488 360.442 502.512 366.906 502.512C371.386 502.512 375.642 501.904 379.674 500.688C383.77 499.408 387.13 497.68 389.754 495.504L393.018 502.992ZM436.079 442.032C444.143 442.032 450.447 444.464 454.991 449.328C459.535 454.192 461.807 461.136 461.807 470.16V510H452.303V470.448C452.303 463.92 450.703 458.992 447.503 455.664C444.303 452.272 439.855 450.576 434.159 450.576C428.015 450.576 423.183 452.368 419.663 455.952C416.143 459.536 414.383 464.848 414.383 471.888V510H404.783V442.8H413.999V452.304C418.543 445.456 425.903 442.032 436.079 442.032ZM481.377 442.8H509.697C516.801 442.8 523.105 444.208 528.609 447.024C534.113 449.84 538.369 453.808 541.377 458.928C544.449 463.984 545.985 469.808 545.985 476.4C545.985 482.992 544.449 488.848 541.377 493.968C538.369 499.024 534.113 502.96 528.609 505.776C523.105 508.592 516.801 510 509.697 510H481.377V442.8ZM509.121 501.648C514.561 501.648 519.329 500.592 523.425 498.48C527.585 496.368 530.785 493.424 533.025 489.648C535.265 485.808 536.385 481.392 536.385 476.4C536.385 471.408 535.265 467.024 533.025 463.248C530.785 459.408 527.585 456.432 523.425 454.32C519.329 452.208 514.561 451.152 509.121 451.152H490.977V501.648H509.121ZM614.695 442.032C623.655 442.032 630.727 444.656 635.911 449.904C641.095 455.088 643.687 462.544 643.687 472.272V510H634.087V491.472H595.303V510H585.895V472.272C585.895 462.544 588.487 455.088 593.671 449.904C598.855 444.656 605.863 442.032 614.695 442.032ZM634.087 483.12V471.408C634.087 464.56 632.359 459.376 628.903 455.856C625.511 452.336 620.775 450.576 614.695 450.576C608.615 450.576 603.847 452.336 600.391 455.856C596.999 459.376 595.303 464.56 595.303 471.408V483.12H634.087ZM694.548 442.032C702.612 442.032 708.916 444.464 713.46 449.328C718.004 454.192 720.276 461.136 720.276 470.16V510H710.772V470.448C710.772 463.92 709.172 458.992 705.972 455.664C702.772 452.272 698.324 450.576 692.628 450.576C686.484 450.576 681.652 452.368 678.132 455.952C674.612 459.536 672.852 464.848 672.852 471.888V510H663.252V442.8H672.468V452.304C677.012 445.456 684.372 442.032 694.548 442.032ZM739.846 442.8H768.166C775.27 442.8 781.574 444.208 787.078 447.024C792.582 449.84 796.838 453.808 799.846 458.928C802.918 463.984 804.454 469.808 804.454 476.4C804.454 482.992 802.918 488.848 799.846 493.968C796.838 499.024 792.582 502.96 787.078 505.776C781.574 508.592 775.27 510 768.166 510H739.846V442.8ZM767.59 501.648C773.03 501.648 777.798 500.592 781.894 498.48C786.054 496.368 789.254 493.424 791.494 489.648C793.734 485.808 794.854 481.392 794.854 476.4C794.854 471.408 793.734 467.024 791.494 463.248C789.254 459.408 786.054 456.432 781.894 454.32C777.798 452.208 773.03 451.152 767.59 451.152H749.446V501.648H767.59Z" fill="white"/>
<path d="M487.065 317C360.614 275.718 387.711 97.6154 496.097 140.372C493.539 122.877 488.78 113.743 472.205 99.0898L487.065 89.9487L514.161 140.372C636.241 96.141 643.817 289.577 524.65 317H487.065Z" fill="#05E21B"/>
<path d="M506.586 289.577V170.744L526.398 155.41C619.634 126.513 613.515 278.962 526.398 298.718L506.586 289.577Z" fill="black" stroke="black"/>
<ellipse cx="532.517" cy="220.577" rx="7.28402" ry="17.3974" fill="#05E21B"/>
<ellipse cx="566.776" cy="221.237" rx="7.28402" ry="17.3974" fill="#05E21B"/>
<path d="M559.905 87.0021C528.422 86.6662 519.611 126.376 519.406 128.284C545.598 120.241 553.835 109.837 559.905 87.0021Z" fill="#05E21B"/>
</svg>
